<svg width="50" height="50" viewBox="0 0 50 50" fill="none" xmlns="http://www.w3.org/2000/svg">
<g clip-path="url(#clip0_33_2)">
<path d="M44.5312 50H5.46875C2.45417 50 0 47.5458 0 44.5312V5.46875C0 2.45417 2.45417 0 5.46875 0H44.5312C47.5458 0 50 2.45417 50 5.46875V44.5312C50 47.5458 47.5458 50 44.5312 50ZM5.46875 3.125C4.17708 3.125 3.125 4.17708 3.125 5.46875V44.5312C3.125 45.8229 4.17708 46.875 5.46875 46.875H44.5312C45.8229 46.875 46.875 45.8229 46.875 44.5312V5.46875C46.875 4.17708 45.8229 3.125 44.5312 3.125H5.46875Z" fill="black"/>
<path d="M26.3417 40.625H13.0021C12.1396 40.625 11.4396 39.925 11.4396 39.0625V10.9375C11.4396 10.075 12.1396 9.375 13.0021 9.375H27.1083C30.0583 9.375 32.4771 10.0604 34.3 11.4104C36.2854 12.8813 37.2938 15.0667 37.2938 17.9104C37.2938 19.6542 36.8333 21.1833 35.9292 22.4542C35.6313 22.8708 35.2917 23.2562 34.9146 23.6083C35.7 24.1083 36.3646 24.7396 36.9042 25.4958C38.0021 27.0396 38.5604 28.9563 38.5604 31.1979C38.5604 32.3271 38.3625 33.4292 37.9729 34.4813C37.9604 34.6375 37.9271 34.7896 37.8625 34.9354C37.3458 36.1479 36.5188 37.2208 35.4729 38.0375C34.4229 38.8625 33.1271 39.5083 31.6229 39.9521C30.1333 40.3979 28.3542 40.625 26.3417 40.625ZM14.5646 37.5H26.3396C28.0458 37.5 29.5229 37.3167 30.7271 36.9542C31.8563 36.6208 32.8021 36.1563 33.5458 35.5729C34.0792 35.1563 34.5167 34.6333 34.8271 34.0458C34.8458 33.9146 34.8792 33.7833 34.9354 33.6542C35.2667 32.8729 35.4333 32.0458 35.4333 31.1937C35.4333 29.6167 35.0708 28.3083 34.3563 27.3063C33.7 26.3833 32.6625 25.7729 31.275 25.4896C30.5458 25.3417 30.0229 24.7021 30.0229 23.9583C30.0229 23.3229 30.4083 22.6583 30.9958 22.4187C32.0396 21.9917 32.8438 21.3917 33.3833 20.6354C33.9104 19.8979 34.1667 19.0042 34.1667 17.9083C34.1667 16.0604 33.6167 14.7917 32.4396 13.9208C31.1688 12.9771 29.3771 12.5 27.1104 12.5H14.5646V37.5Z" fill="black"/>
<path d="M27.0125 35.3687H18.2187C17.3562 35.3687 16.6562 34.6687 16.6562 33.8062V26.625C16.6562 25.7625 17.3562 25.0625 18.2187 25.0625H26.9875C28.7625 25.0625 30.1563 25.4208 31.2458 26.1562C31.3125 26.1917 31.3771 26.2312 31.4417 26.2771C32.6667 27.1646 33.3229 28.4979 33.3437 30.1375C33.3437 31.7979 32.6958 33.1604 31.4729 34.0958C30.3688 34.9396 28.8687 35.3687 27.0125 35.3687ZM19.7812 32.2437H27.0125C28.1667 32.2437 29.0271 32.0312 29.5729 31.6125C29.875 31.3812 30.2187 31.0104 30.2187 30.1562C30.2104 29.4521 29.9646 29.1042 29.7167 28.8937C29.6667 28.8646 29.6167 28.8333 29.5708 28.7979C29.0229 28.3937 28.1542 28.1875 26.9896 28.1875H19.7812V32.2437ZM25.7958 22.9167H18.2187C17.3562 22.9167 16.6562 22.2167 16.6562 21.3542V15.1042C16.6562 14.2417 17.3562 13.5417 18.2187 13.5417H25.7958C27.3687 13.5417 28.6417 13.8708 29.5792 14.5208C30.3417 15.0458 31.2563 16.1167 31.2563 18.2167C31.2563 19.7375 30.6458 20.9833 29.4917 21.8187C29.4521 21.8458 29.4146 21.8729 29.375 21.8958C28.4021 22.5646 27.1667 22.9167 25.7958 22.9167ZM19.7812 19.7917H25.7958C26.5667 19.7917 27.1896 19.6208 27.65 19.2875C27.6771 19.2687 27.7021 19.25 27.7292 19.2333C27.9458 19.0583 28.1313 18.7979 28.1313 18.2146C28.1313 17.8792 28.0875 17.2875 27.8042 17.0896C27.5229 16.8958 26.9479 16.6667 25.7958 16.6667H19.7812V19.7917Z" fill="black"/>
</g>
<defs>
<clipPath id="clip0_33_2">
<rect width="50" height="50" fill="white"/>
</clipPath>
</defs>
</svg>
