<svg width="50" height="50" viewBox="0 0 50 50" fill="none" xmlns="http://www.w3.org/2000/svg">
<g clip-path="url(#clip0_13_18)">
<path d="M17.0771 43.75C11.275 43.75 6.79584 41.9271 3.76875 38.3292C0.875005 34.8875 -0.558329 29.5917 0.200005 25.1479C0.329171 24.3979 0.979171 23.8479 1.73959 23.8479H33.575C34.1271 23.8687 34.5938 23.8042 34.9958 23.7208C34.1813 21.0833 34.8292 18.0417 36.0854 16.1333L36.7708 15.1C37 14.7542 37.3583 14.5146 37.7646 14.4312C38.175 14.3479 38.5938 14.4333 38.9396 14.6625L39.9646 15.3458C41.6333 16.6312 42.7333 18.0562 43.2938 19.625C45.0896 19.5417 47.1271 19.8312 48.3375 20.65L49.3063 21.3C49.9542 21.7333 50.1813 22.5792 49.8417 23.2812L49.7354 23.5021C49.5625 23.8583 49.3104 24.375 49.1938 24.5917C47.3688 28.075 44.0854 28.6542 42.1563 28.7333C37.75 38.4292 28.8854 43.75 17.0771 43.75ZM3.1375 26.9729C2.96042 30.2542 4.10209 33.8687 6.16251 36.3167C8.56876 39.175 12.2396 40.6229 17.0792 40.6229C27.9229 40.6229 35.9521 35.6375 39.6854 26.5833C39.9313 25.9896 40.5 25.6146 41.1604 25.6167C43.1125 25.6562 45.2458 25.3917 46.4229 23.15C45.7208 22.8271 43.9646 22.5729 42.4 22.8646C41.9833 22.9479 41.5458 22.8479 41.1979 22.5979C40.85 22.3479 40.6208 21.9667 40.5625 21.5437C40.3938 20.3146 39.7188 19.2083 38.5042 18.1771C37.6583 19.7229 37.3938 22.1708 38.4333 23.7729C38.6708 24.1375 38.7438 24.5875 38.6375 25.0104C38.5313 25.4333 38.25 25.7917 37.8667 26C37.3021 26.3062 35.7813 27.0292 33.5521 26.975H3.1375V26.9729Z" fill="black"/>
<path d="M33.1521 26.9604H3.60208C2.73958 26.9604 2.03958 26.2604 2.03958 25.3979V19.5354C2.03958 18.6729 2.73958 17.9729 3.60208 17.9729H33.1521C34.0146 17.9729 34.7146 18.6729 34.7146 19.5354V25.3979C34.7146 26.2604 34.0146 26.9604 33.1521 26.9604ZM5.16458 23.8354H31.5896V21.0979H5.16458V23.8354Z" fill="black"/>
<path d="M27.0375 21.0979H8.69583C7.83333 21.0979 7.13333 20.3979 7.13333 19.5354V13.675C7.13333 12.8125 7.83333 12.1125 8.69583 12.1125H27.0375C27.9 12.1125 28.6 12.8125 28.6 13.675V19.5354C28.6 20.4 27.9 21.0979 27.0375 21.0979ZM10.2583 17.9729H25.475V15.2375H10.2583V17.9729Z" fill="black"/>
<path d="M27.0375 26.9604H20.9229C20.0604 26.9604 19.3604 26.2604 19.3604 25.3979V7.8125C19.3604 6.95 20.0604 6.25 20.9229 6.25H27.0375C27.9 6.25 28.6 6.95 28.6 7.8125V25.3979C28.6 26.2604 27.9 26.9604 27.0375 26.9604ZM22.4854 23.8354H25.475V9.375H22.4854V23.8354Z" fill="black"/>
<path d="M20.9229 26.9604H14.8104C13.9479 26.9604 13.2479 26.2604 13.2479 25.3979V13.675C13.2479 12.8125 13.9479 12.1125 14.8104 12.1125H20.925C21.7875 12.1125 22.4875 12.8125 22.4875 13.675V25.3979C22.4854 26.2604 21.7875 26.9604 20.9229 26.9604ZM16.3729 23.8354H19.3625V15.2375H16.3729V23.8354Z" fill="black"/>
<path d="M14.8104 26.9604H8.69583C7.83333 26.9604 7.13333 26.2604 7.13333 25.3979V19.5354C7.13333 18.6729 7.83333 17.9729 8.69583 17.9729H14.8104C15.6729 17.9729 16.3729 18.6729 16.3729 19.5354V25.3979C16.3729 26.2604 15.6729 26.9604 14.8104 26.9604ZM10.2583 23.8354H13.2479V21.0979H10.2583V23.8354Z" fill="black"/>
</g>
<defs>
<clipPath id="clip0_13_18">
<rect width="50" height="50" fill="white"/>
</clipPath>
</defs>
</svg>
