<svg width="50" height="50" viewBox="0 0 50 50" fill="none" xmlns="http://www.w3.org/2000/svg">
<path d="M44.2708 50H30.0187C29.6021 50 29.2021 49.8333 28.9083 49.5354L16.4021 36.8979C15.7979 36.2896 15.8 35.3083 16.4021 34.6979L28.9104 22.0854C29.2042 21.7896 29.6042 21.6208 30.0229 21.6208H44.2708C44.9021 21.6208 45.4708 22 45.7125 22.5813C45.9542 23.1625 45.825 23.8354 45.3812 24.2813L33.9812 35.8021L45.3812 47.3354C45.825 47.7833 45.9542 48.4542 45.7125 49.0354C45.4708 49.6208 44.9021 50 44.2708 50ZM30.6708 46.875H40.5292L30.6729 36.9021C30.0708 36.2937 30.0708 35.3125 30.6729 34.7042L40.525 24.7479H30.6729L19.7104 35.8L30.6708 46.875ZM13.9229 33.7896C13.5062 33.7896 13.1062 33.6229 12.8125 33.325L5.66041 26.0979C5.05833 25.4896 5.05833 24.5083 5.66041 23.9L28.8833 0.462501C29.2583 0.0854177 29.7792 -0.0583323 30.2646 0.0229177H44.2396C44.8708 0.0229177 45.4396 0.402084 45.6812 0.983334C45.9229 1.56458 45.7937 2.2375 45.35 2.68333L15.0333 33.3271C14.7396 33.6229 14.3396 33.7896 13.9229 33.7896ZM8.97083 25.0021L13.9229 30.0063L40.4958 3.14792H30.6208L8.97083 25.0021Z" fill="black"/>
</svg>
