<svg width="50" height="50" viewBox="0 0 50 50" fill="none" xmlns="http://www.w3.org/2000/svg">
<path d="M24.8693 0.00132306C18.8516 0.00319792 13.0385 2.23068 8.50721 6.27103C3.97592 10.3114 1.0336 15.8907 0.225423 21.9751C-0.582749 28.0596 0.798023 34.2367 4.11189 39.3619C7.42576 44.4871 12.4481 48.2129 18.2482 49.849C18.4971 49.9446 18.7627 49.9861 19.0282 49.9711C19.2936 49.9561 19.5531 49.8847 19.7901 49.7617C20.0271 49.6386 20.2363 49.4665 20.4044 49.2564C20.5726 49.0462 20.696 48.8026 20.7667 48.5411C20.8375 48.2796 20.854 48.0059 20.8153 47.7375C20.7767 47.4691 20.6836 47.2119 20.542 46.9822C20.4005 46.7526 20.2136 46.5555 19.9933 46.4037C19.773 46.2518 19.5241 46.1484 19.2624 46.1002C14.4462 44.7546 10.2557 41.7057 7.43939 37.4983C4.6231 33.2909 3.36446 28.199 3.88831 23.132C4.41215 18.0651 6.68436 13.3531 10.2991 9.83792C13.9138 6.32269 18.6355 4.23312 23.6209 3.94245C28.6063 3.65178 33.5306 5.17894 37.5142 8.25114C41.4978 11.3234 44.2813 15.7405 45.3674 20.7136C46.4535 25.6867 45.7716 30.8918 43.4433 35.3991C41.1151 39.9065 37.2922 43.4225 32.6576 45.3192C32.7783 42.7535 32.5855 40.1824 32.0835 37.6653C34.8036 37.0497 37.2289 35.4875 38.9433 33.2465C40.6577 31.0056 41.5543 28.2258 41.4793 25.384C41.6174 22.711 40.9133 20.063 39.47 17.8278C39.7376 15.61 39.4749 13.3591 38.7046 11.2673C38.561 10.8312 38.2711 10.4608 37.886 10.2214C37.5009 9.98208 37.0453 9.8892 36.5996 9.95915C34.2917 10.2808 32.0861 11.1355 30.1508 12.4584C28.4268 11.9907 26.653 11.7415 24.8693 11.7164C22.9303 11.7685 21.0038 12.0503 19.1285 12.556C17.2683 11.1041 15.0021 10.2968 12.6605 10.252C12.2479 10.2272 11.8385 10.3393 11.4936 10.5716C11.1487 10.8038 10.8867 11.1438 10.7469 11.5407C10.0451 13.5338 9.80281 15.6651 10.0389 17.7692C8.6658 20.0577 7.96821 22.7015 8.02958 25.384C8.10049 28.2115 9.07297 30.9383 10.7996 33.151C12.5262 35.3637 14.9128 36.9418 17.5976 37.6458C17.4747 38.1543 17.3789 38.6692 17.3105 39.1883C15.3969 39.3054 14.2871 38.1144 12.871 36.2986C12.0374 34.8693 10.7151 33.8052 9.15861 33.3112C8.67526 33.2233 8.17728 33.3283 7.76767 33.6045C7.35807 33.8807 7.06818 34.307 6.95797 34.7951C6.85198 35.2837 6.93385 35.795 7.18667 36.2238C7.43949 36.6525 7.84397 36.9658 8.31662 37.0991C8.6228 37.0991 9.3691 38.1144 9.7901 38.6806C10.5526 39.947 11.6028 41.0074 12.8519 41.7721C14.1009 42.5368 15.5121 42.9833 16.9661 43.0738C17.8071 43.0727 18.6441 42.9544 19.4538 42.7223C19.652 42.6624 19.8394 42.5701 20.0087 42.449C20.1484 42.3363 20.2654 42.1971 20.3532 42.039C20.414 41.9901 20.4659 41.9306 20.5063 41.8632C20.556 41.7571 20.5944 41.6458 20.6211 41.5313C20.6681 41.404 20.7064 41.2735 20.7359 41.1408C20.7295 39.8434 21.0316 38.5637 21.6161 37.4115C21.8539 37.1279 22.007 36.7806 22.0573 36.4109C22.1077 36.0412 22.0531 35.6645 21.9 35.3255C21.747 34.9865 21.5019 34.6993 21.1938 34.4981C20.8858 34.2968 20.5276 34.1898 20.1618 34.1899C17.944 34.0621 15.8555 33.0835 14.3152 31.4503C12.7749 29.8172 11.8967 27.6502 11.8568 25.384C11.762 23.2974 12.3475 21.2376 13.5216 19.5265C13.712 19.3086 13.8522 19.0499 13.9316 18.7694C14.0111 18.4889 14.0279 18.1939 13.9809 17.9059C13.7607 16.7123 13.7607 15.4873 13.9809 14.2937C15.2331 14.5643 16.3863 15.1865 17.3105 16.09C17.56 16.3343 17.8696 16.505 18.2066 16.5841C18.5435 16.6632 18.8952 16.6476 19.2241 16.5391C21.0631 16.0039 22.9584 15.6958 24.8693 15.6214C26.5891 15.6653 28.2951 15.9478 29.9403 16.461C30.261 16.5822 30.6076 16.6136 30.9441 16.5518C31.2806 16.4899 31.5948 16.3373 31.8539 16.1096C32.9688 15.1723 34.2773 14.5048 35.6811 14.1571C35.9681 15.3829 35.9681 16.6605 35.6811 17.8864C35.6062 18.238 35.6234 18.6036 35.7309 18.9463C35.8384 19.2891 36.0324 19.5969 36.2935 19.8389C37.4168 21.4457 37.9022 23.4269 37.6521 25.384C37.6972 26.5316 37.5105 27.6764 37.1036 28.7473C36.6967 29.8181 36.0783 30.7922 35.2869 31.6089C34.4954 32.4255 33.5478 33.0674 32.503 33.4947C31.4581 33.9219 30.3383 34.1253 29.2131 34.0922C28.8221 34.0909 28.4401 34.2119 28.1186 34.4388C27.797 34.6657 27.5512 34.9876 27.4144 35.3614C27.2755 35.7351 27.2524 36.1434 27.3482 36.531C27.4441 36.9186 27.6542 37.2668 27.9502 37.5286C29.0792 38.5244 28.907 45.3387 28.8496 47.9941C28.8421 48.2973 28.9039 48.598 29.0301 48.8725C29.1563 49.147 29.3435 49.3878 29.5767 49.5757C29.9159 49.8443 30.3338 49.9887 30.7632 49.9857C30.9221 50.0048 31.0826 50.0048 31.2416 49.9857C37.1403 48.4585 42.2858 44.7781 45.7043 39.6409C49.1228 34.5037 50.5771 28.2661 49.7921 22.1085C49.0071 15.951 46.0372 10.3006 41.4444 6.22671C36.8517 2.15279 30.9546 -0.062045 24.8693 0.00132306Z" fill="black"/>
</svg>
