<svg width="50" height="50" viewBox="0 0 50 50" fill="none" xmlns="http://www.w3.org/2000/svg">
<path d="M23.8229 28.9396C23.5229 28.9396 23.2208 28.8521 22.9542 28.675C22.7208 28.5167 17.2125 24.7583 17.2125 19.9063C17.2125 14.7875 20.8875 12.0396 23.8417 9.83125C26.1667 8.09375 28.175 6.59167 28.175 4.41458C28.175 3.35208 27.5521 2.81458 27.5458 2.80833C26.8583 2.2875 26.7229 1.30625 27.2438 0.618749C27.7667 -0.0666673 28.7438 -0.200001 29.4333 0.316666C29.625 0.460416 31.3 1.80625 31.3 4.4125C31.3 8.15417 28.4604 10.2771 25.7146 12.3313C22.95 14.3979 20.3396 16.3521 20.3396 19.9042C20.3396 22.5479 23.4896 25.2583 24.7021 26.0813C25.4167 26.5646 25.6042 27.5354 25.1229 28.25C24.8167 28.6958 24.3229 28.9396 23.8229 28.9396Z" fill="black"/>
<path d="M27.7396 28.6C26.8771 28.6 26.1771 27.9 26.1771 27.0375C26.1771 25.5896 25.7604 25.1312 25.0729 24.3729C24.2771 23.4958 23.1875 22.2958 23.1875 19.7208C23.1875 14.9604 31.3375 10.2583 32.9708 9.36458C33.7271 8.94792 34.675 9.22708 35.0917 9.98333C35.5062 10.7396 35.2292 11.6896 34.4729 12.1042C31.1813 13.9083 26.3125 17.5771 26.3125 19.7208C26.3125 21.0896 26.7167 21.5354 27.3875 22.275C28.1958 23.1646 29.3021 24.3854 29.3021 27.0396C29.3021 27.9 28.6021 28.6 27.7396 28.6Z" fill="black"/>
<path d="M17.7458 33.7562C14.1979 33.7562 11.1479 33.3292 9.6375 32.4C8.42292 31.6542 8.24375 30.6771 8.24375 30.1604C8.24375 27.4812 12.6021 26.1479 16.2604 25.5C17.1021 25.3479 17.9187 25.9167 18.0708 26.7667C18.2229 27.6167 17.6542 28.4271 16.8063 28.5771C14.9125 28.9146 12.925 29.5271 11.9104 30.0479C15.2562 31.1604 27.3938 30.7792 33.1729 27.8521C33.9458 27.4646 34.8833 27.7708 35.2729 28.5417C35.6625 29.3125 35.3542 30.2521 34.5833 30.6417C30.6875 32.6083 23.5521 33.7562 17.7458 33.7562ZM19.7688 39.5562C14.2875 39.5562 13.3271 37.0583 13.1771 36.4771C12.9625 35.6417 13.4687 34.7896 14.3042 34.575C15.0833 34.3708 15.8812 34.8021 16.1562 35.5437C16.2792 35.6958 17.4896 36.9604 22.8 36.1854C28.2021 35.3958 29.5979 34.4562 29.8292 34.2729C30.2354 33.6833 31.0083 33.4292 31.7 33.7083C32.5 34.0312 32.8875 34.9417 32.5667 35.7417C31.95 37.275 28.8167 38.4646 23.2521 39.2771C21.925 39.4729 20.7708 39.5562 19.7688 39.5562ZM16.2042 35.7C16.2042 35.7021 16.2062 35.7 16.2042 35.7ZM16.2042 35.6958V35.7C16.2042 35.7 16.2042 35.6979 16.2042 35.6958ZM29.6708 34.5646C29.6708 34.5667 29.6708 34.5646 29.6708 34.5646Z" fill="black"/>
<path d="M15.5792 45.4333C11.9083 45.4333 8.95625 45.1958 7.80417 44.7375C6.45208 44.1958 6.25 43.2688 6.25 42.7625C6.25 40.4625 9.44583 39.1625 11.35 38.5938C12.1792 38.3458 13.0479 38.8146 13.2938 39.6396C13.5417 40.4646 13.075 41.3354 12.2479 41.5854C11.7063 41.75 11.1333 41.9729 10.6375 42.2063C16.75 42.8979 34.9729 41.3979 37.0646 39.1958C37.6583 38.5688 38.6479 38.5458 39.275 39.1396C39.9 39.7333 39.925 40.7229 39.3313 41.35C36.6813 44.1354 24.1625 45.4333 15.5792 45.4333Z" fill="black"/>
<path d="M18.2104 49.9646C14.3833 49.9646 11.3333 49.6646 10.0396 49.2C9.22708 48.9083 8.80625 48.0125 9.09583 47.2021C9.38542 46.3896 10.2833 45.9667 11.0937 46.2583C14.4833 47.475 33.5646 47.1979 41.3708 42.4125C42.1062 41.9646 43.0687 42.1937 43.5208 42.9292C43.9708 43.6667 43.7396 44.6271 43.0042 45.0792C37.0667 48.7167 26.0208 49.9646 18.2104 49.9646ZM33.6583 38.1833C33.0542 38.1833 32.4792 37.8312 32.225 37.2417C31.8813 36.45 32.2458 35.5312 33.0375 35.1875C35.9812 33.9125 40.1271 31.1771 40.1271 29.0937C40.1271 28.5917 39.9854 28.4917 39.9312 28.4542C39.2625 27.9875 37.2 28.3583 36.0271 28.7896C35.2208 29.0896 34.3187 28.675 34.0208 27.8646C33.7229 27.0542 34.1354 26.1562 34.9458 25.8583C35.6792 25.5875 39.4604 24.3146 41.7167 25.8896C42.4167 26.3771 43.2521 27.3292 43.2521 29.0937C43.2521 34.0375 35.1958 37.6604 34.2771 38.0562C34.075 38.1437 33.8646 38.1833 33.6583 38.1833Z" fill="black"/>
</svg>
