<svg width="50" height="50" viewBox="0 0 50 50" fill="none" xmlns="http://www.w3.org/2000/svg">
<g clip-path="url(#clip0_13_39)">
<path d="M48.9583 50H1.04167C0.765399 50 0.500447 49.8903 0.305097 49.6949C0.109747 49.4996 0 49.2346 0 48.9583V1.04167C0 0.765399 0.109747 0.500447 0.305097 0.305097C0.500447 0.109747 0.765399 0 1.04167 0L48.9583 0C49.2346 0 49.4996 0.109747 49.6949 0.305097C49.8903 0.500447 50 0.765399 50 1.04167V48.9583C50 49.2346 49.8903 49.4996 49.6949 49.6949C49.4996 49.8903 49.2346 50 48.9583 50ZM2.08333 47.9167H47.9167V2.08333H2.08333V47.9167ZM20.3896 46.3083C18.675 46.3083 17.0875 45.8979 15.7458 45.0958C14.4854 44.3375 13.4312 43.1396 12.7 41.6271C12.5873 41.3947 12.565 41.1287 12.6374 40.8808C12.7098 40.6329 12.8717 40.4207 13.0917 40.2854L16.7354 38.0396C16.8998 37.9391 17.0886 37.8858 17.2812 37.8854C17.9062 37.8854 18.1812 38.3583 18.3458 38.6417C18.8396 39.4687 19.1146 39.8208 19.6458 40.0875C19.6562 40.0792 19.9375 40.1583 20.2875 40.1562C20.6896 40.1562 21.1687 40.0563 21.3792 39.6167C21.5937 39.1625 21.575 37.3979 21.5625 36.1083L21.5521 34.6542L21.5708 23.0646C21.5708 22.7883 21.6806 22.5234 21.8759 22.328C22.0713 22.1327 22.3362 22.0229 22.6125 22.0229H27.1C27.243 22.0231 27.3844 22.0528 27.5154 22.11C27.6465 22.1672 27.7643 22.2508 27.8617 22.3556C27.959 22.4603 28.0337 22.584 28.0812 22.7189C28.1286 22.8538 28.1478 22.997 28.1375 23.1396V27.3062C28.1437 30.05 28.1479 32.7854 28.1333 35.5187L28.1458 36.5937C28.1812 38.7917 28.2146 40.8667 27.2125 42.6937C26.45 44.25 24.9375 45.4437 22.9708 46.0104C22.1242 46.2055 21.2584 46.3055 20.3896 46.3083ZM15.0333 41.5375C15.5271 42.2958 16.1333 42.9 16.8146 43.3104C18.3229 44.2125 20.3792 44.4646 22.4542 43.9958C23.3792 43.7271 24.6937 43.1 25.3625 41.7375C26.1208 40.35 26.0937 38.6271 26.0604 36.6292L26.0479 35.5187C26.0646 32.7812 26.0583 30.05 26.0521 27.3125L26.0479 24.1083H23.6479L23.6312 34.6562L23.6417 36.0896C23.6667 38.5208 23.6583 39.8229 23.2146 40.5917C22.425 42.2458 20.4563 42.5187 18.875 42.0229C18.0891 41.6598 17.4218 41.0821 16.95 40.3562L15.0333 41.5375ZM37.6125 46.0979C34.8083 46.0979 32.0125 45.1229 30.3354 43.4292L29.8937 42.9271C29.3646 42.3312 28.9062 41.8167 28.5042 40.8979C28.4013 40.6628 28.3888 40.3979 28.4692 40.1542C28.5495 39.9104 28.717 39.7049 28.9396 39.5771L32.5937 37.4792C32.8237 37.3467 33.0956 37.307 33.3538 37.3682C33.6121 37.4293 33.8372 37.5868 33.9833 37.8083C34.9146 39.2187 35.6083 39.7583 36.8437 40.0312C37.8958 40.1583 38.9187 39.9542 39.3396 39.4979C39.4187 39.4104 39.6583 39.1521 39.5292 38.4771C39.3375 37.8667 37.9771 37.2937 36.6646 36.7417C35.3896 36.2062 33.9458 35.5979 32.7 34.6667C31.1583 33.6292 30.0958 31.8187 29.8312 29.7312C29.5687 27.6583 30.1417 25.65 31.4083 24.2167C32.275 23.1458 33.7229 22.2854 35.3563 21.8875L36.8792 21.6896C39.8562 21.6208 41.9167 22.3833 43.4437 24.0937C43.8604 24.4979 44.1896 24.9667 44.7146 25.7833C44.79 25.8991 44.8415 26.0289 44.8659 26.165C44.8903 26.301 44.8871 26.4406 44.8566 26.5754C44.8261 26.7102 44.7689 26.8375 44.6883 26.9498C44.6077 27.0621 44.5054 27.1571 44.3875 27.2292C42.9562 28.1208 42.9562 28.1208 40.9021 29.4625C40.7773 29.544 40.6365 29.5978 40.4892 29.6202C40.3418 29.6426 40.1914 29.6332 40.048 29.5925C39.9047 29.5518 39.7717 29.4809 39.6581 29.3844C39.5445 29.2879 39.4529 29.1682 39.3896 29.0333C39.0917 28.4 38.625 27.9562 38.0771 27.7875C37.6187 27.6521 37.0708 27.6896 36.7229 27.8917C36.6348 27.937 36.5578 28.0012 36.4973 28.0797C36.4368 28.1582 36.3943 28.2491 36.3729 28.3458C36.3271 28.5104 36.2875 28.6354 36.4562 29.2396C36.6292 29.6104 37.6146 30.0333 38.5646 30.4437C38.8708 30.575 39.1792 30.7083 39.4812 30.85C43.5625 32.5042 45.6083 34.5208 46.0625 37.3646C46.0845 37.4968 46.0802 37.632 46.05 37.7625C46.2292 39.3062 45.9729 40.4312 45.7896 40.9958C45.1 43.3542 43.1792 45.05 40.3854 45.7583C39.479 45.9873 38.5474 46.1014 37.6125 46.0979ZM30.8771 40.8667C31.0375 41.0812 31.2229 41.2875 31.4479 41.5437L31.8646 42.0187C33.5396 43.7042 37 44.4708 39.8708 43.7437C41.0583 43.4437 43.1458 42.6083 43.7917 40.4C43.9208 40 44.1646 39.0104 43.9125 37.5792C43.8931 37.4676 43.8924 37.3535 43.9104 37.2417C43.5667 35.8833 42.5125 34.3312 38.6458 32.7625C38.3125 32.6083 38.0229 32.4833 37.7375 32.3604C36.4167 31.7917 35.0479 31.2021 34.4958 29.9375C34.2437 29.0667 34.1583 28.4792 34.3604 27.8125C34.4496 27.4505 34.6126 27.1108 34.8392 26.8147C35.0657 26.5186 35.351 26.2724 35.6771 26.0917C36.5271 25.5958 37.6479 25.4854 38.6812 25.7958C39.45 26.0333 40.1208 26.4979 40.6438 27.1417C41.4813 26.5958 41.8437 26.3604 42.3667 26.0333C42.236 25.8545 42.0911 25.6866 41.9333 25.5312C40.7646 24.2271 39.3208 23.7062 37.0292 23.7667L35.7292 23.9354C34.6646 24.2021 33.6 24.8187 32.9937 25.5646C32.0958 26.5812 31.7062 27.9937 31.8937 29.4708C32.0812 30.9417 32.8333 32.25 33.9021 32.9729C34.9854 33.7792 36.2479 34.3125 37.4687 34.825C39.3458 35.6146 41.1208 36.3625 41.5479 37.9708L41.5604 38.0271C41.8562 39.4729 41.3458 40.3958 40.8667 40.9146C39.9667 41.8917 38.3646 42.3187 36.4875 42.0854C34.7417 41.7021 33.6917 40.8854 32.8104 39.7583L30.8771 40.8667Z" fill="black"/>
</g>
<rect x="1" y="1" width="48" height="48" stroke="black" stroke-width="2"/>
<defs>
<clipPath id="clip0_13_39">
<rect width="50" height="50" fill="white"/>
</clipPath>
</defs>
</svg>
