<svg width="50" height="50" viewBox="0 0 50 50" fill="none" xmlns="http://www.w3.org/2000/svg">
<g clip-path="url(#clip0_13_44)">
<path d="M50.2687 48.775L49.2104 47.7667C48.6875 47.0771 48.1313 46.4667 47.525 45.9104L47.5146 45.9021C46.8924 45.3368 46.2458 44.7993 45.575 44.2896C45.0375 43.9201 44.2986 43.475 43.3583 42.9542C42.5854 42.6063 41.9812 41.9958 41.6542 41.2375L41.6458 41.2167L41.5458 41.1667C41.9875 41.1229 42.3917 41.0417 42.7792 40.9271L42.7312 40.9396L43.9187 40.6125C44.4104 40.4583 44.9792 40.3583 45.5687 40.3354H45.5812C46.2021 40.3104 46.7875 40.2104 47.3458 40.0458L47.2938 40.0583C47.5632 39.9917 47.8403 39.916 48.125 39.8313C48.4097 39.7465 48.6535 39.6708 48.8563 39.6042V39.2521C48.6549 38.9507 48.4111 38.6063 48.125 38.2188C47.8521 37.8479 47.5458 37.525 47.2021 37.2438L47.1917 37.2354C46.3181 36.4632 45.4132 35.716 44.4771 34.9938C43.6521 34.35 42.7167 33.6938 41.7458 33.0854L41.6042 33.0021C41.0917 32.6646 40.5042 32.3521 39.8854 32.0958L39.8146 32.0708C39.1924 31.8181 38.5792 31.541 37.975 31.2396C37.7729 31.1396 37.5375 31.0521 37.2937 30.9917L37.2708 30.9875C37.0271 30.9375 36.8188 30.8125 36.6667 30.6354L36.6646 30.6333C36.3771 30.2542 36.125 29.8229 35.925 29.3646L35.9083 29.3229C35.7069 28.8521 35.4889 28.4 35.2542 27.9667C34.75 26.9917 34.2625 26.0007 33.7917 24.9938C33.3208 23.9868 32.8688 22.9785 32.4354 21.9688C32.134 21.2965 31.8569 20.625 31.6042 19.9542C31.325 19.2167 31.0104 18.5854 30.6437 17.9917L30.6708 18.0396C29.7708 16.5063 28.8729 15.1979 27.8979 13.9542L27.9562 14.0333C26.9917 12.8167 25.9917 11.7292 24.9167 10.7208L24.9 10.7063C23.8396 9.71042 22.6979 8.76042 21.5 7.88126L21.3979 7.80834C20.1535 6.90417 18.7924 6.0139 17.3146 5.13751C16.7208 4.78751 16.0313 4.50209 15.3042 4.31876L15.25 4.30626L12.9313 3.72709L11.6208 3.62709C11.1847 3.59376 10.7479 3.57709 10.3104 3.57709C10.0021 3.41459 9.7375 3.22084 9.50417 2.99584C9.275 2.77709 9.02709 2.57084 8.76875 2.38126L8.74792 2.36667C7.4875 1.63126 6.02292 0.95834 4.49167 0.429174L4.31459 0.375007C3.9125 0.13959 3.42917 0.00209045 2.91459 0.00209045C2.54792 0.00209045 2.19584 0.0729238 1.875 0.200007L1.89375 0.193757C1.10209 0.50834 0.497919 1.14792 0.237502 1.94376L0.231252 1.96459C0.0791687 2.32292 -0.0083313 2.73751 -0.0083313 3.17501C-0.0083313 3.94167 0.262502 4.64376 0.714585 5.19167L0.710419 5.18542C1.46597 6.19237 2.04514 6.98403 2.44792 7.56042C2.74931 7.96459 3.06042 8.38473 3.38125 8.82084C3.675 9.21251 3.93542 9.66042 4.14584 10.1333L4.1625 10.1771C4.27917 10.425 4.38125 10.7208 4.45625 11.025L4.4625 11.0583C4.52917 11.3445 4.6132 11.6556 4.71459 11.9917C5.01597 12.7639 5.30139 13.5556 5.57084 14.3667C5.86459 15.2521 6.18958 16.0021 6.56667 16.7167L6.52708 16.6333C6.72847 17.0028 6.93056 17.3639 7.13334 17.7167C7.33611 18.0694 7.55417 18.4139 7.7875 18.75C7.92292 18.9542 8.09375 19.1229 8.28959 19.2542L8.29584 19.2583C8.50209 19.4083 8.6375 19.6438 8.64792 19.9104C8.41042 20.2604 8.25 20.6813 8.19583 21.1333L8.19375 21.1458C8.12084 21.6729 8.01667 22.1417 7.875 22.5938L7.89167 22.5313C7.42709 23.9188 7.16042 25.5188 7.16042 27.1792C7.16042 27.7167 7.1875 28.2458 7.24375 28.7688L7.2375 28.7042C7.3625 30.7 7.96458 32.5333 8.92917 34.1208L8.9 34.0688C9.31042 34.6833 9.75 35.2188 10.2354 35.7083C10.5854 36.1 11.0938 36.3458 11.6604 36.3458C11.9771 36.3458 12.2771 36.2688 12.5396 36.1313L12.5292 36.1354C13.2583 35.8729 13.7771 35.2063 13.8146 34.4125V34.4083C13.9146 33.4208 14.0646 32.5375 14.2708 31.675L14.2438 31.8146C14.2938 31.6833 14.3229 31.5333 14.3229 31.375C14.3229 31.3438 14.3208 31.3125 14.3188 31.2813V31.2854C14.3021 31.134 14.3944 30.991 14.5958 30.8563V30.9563C14.7972 31.4271 15.0069 31.8972 15.225 32.3667C15.4431 32.8361 15.6694 33.3063 15.9042 33.7771C16.5188 34.7125 17.1708 35.5292 17.8875 36.2813L17.8813 36.275C18.6 37.05 19.3833 37.7458 20.2292 38.3604L20.275 38.3917C20.7167 38.7292 21.1042 39.0938 21.4542 39.4917L21.4625 39.5C21.7917 39.8875 22.1854 40.2063 22.6292 40.4458L22.65 40.4563V40.4063H22.75C22.6688 40.225 22.5375 40.0792 22.375 39.9792L22.3708 39.9771C22.2063 39.8854 22.0646 39.7938 21.9313 39.6938L21.9417 39.7C21.6403 39.3986 21.3292 39.0625 21.0083 38.6917C20.6875 38.3208 20.3938 37.9681 20.1271 37.6333C19.4215 36.6583 18.7486 35.6396 18.1083 34.5771C17.4681 33.5146 16.8632 32.4347 16.2938 31.3375C16.0243 30.8 15.7639 30.2458 15.5125 29.675C15.2611 29.1042 15.0174 28.55 14.7813 28.0125C14.6792 27.8063 14.6083 27.5688 14.5813 27.3167V27.3063C14.5688 27.0667 14.4313 26.8604 14.2313 26.7542L14.2271 26.7521C13.975 27.1813 13.6958 27.5521 13.3771 27.8875L13.3792 27.8854C13.0479 28.2333 12.7771 28.6438 12.5833 29.0938L12.5729 29.1208C12.2792 29.8333 12.0646 30.6604 11.9708 31.525L11.9667 31.5646C11.8667 32.4549 11.766 33.3701 11.6646 34.3104L11.5646 34.3604L11.5146 34.4104C10.9729 34.3 10.5271 33.9542 10.2854 33.4875L10.2813 33.4771C10.0285 32.9896 9.80209 32.5104 9.60209 32.0396C9.08542 30.7125 8.76459 29.1771 8.72084 27.5729V27.5542C8.70209 27.3 8.69375 27.0021 8.69375 26.7042C8.69375 25.3167 8.9125 23.9792 9.31667 22.725L9.29167 22.8167C9.39167 22.4472 9.60972 21.825 9.94584 20.95C10.2819 20.075 10.3493 19.4701 10.1479 19.1354C10.0438 18.7917 9.85 18.5021 9.59584 18.2813L9.59375 18.2792C9.33959 18.0583 9.10834 17.8271 8.89584 17.5813L8.88959 17.5729C8.65486 17.234 8.42847 16.8729 8.21042 16.4896C7.99236 16.1063 7.79931 15.7285 7.63125 15.3563C7.2875 14.5604 6.93542 13.5625 6.64375 12.5375L6.59792 12.3521C6.26667 11.175 5.89792 10.1792 5.46042 9.22084L5.51459 9.35417C5.28334 8.82917 5.01459 8.37501 4.70209 7.96042L4.71459 7.97709C4.3757 7.52431 4.07292 7.09584 3.80625 6.69167C3.46736 6.25556 3.13125 5.83542 2.79792 5.43126C2.45834 5.02084 2.15625 4.55834 1.91042 4.06251L1.89167 4.02084C1.79167 3.81876 1.70417 3.58334 1.64375 3.33959L1.63959 3.31667C1.61667 3.24376 1.60417 3.15834 1.60417 3.07292C1.60417 2.90209 1.65417 2.74167 1.74167 2.60834L1.73959 2.61251C1.7625 2.49584 1.81667 2.39376 1.89167 2.31042C1.97292 2.23751 2.07709 2.18334 2.18959 2.16042H2.19375C2.37084 2.04584 2.58542 1.97709 2.81875 1.97709C2.99375 1.97709 3.1625 2.01667 3.31042 2.08751L3.30417 2.08542C3.76042 2.21459 4.12917 2.34376 4.48959 2.49167L4.41459 2.46459C5.05208 2.73403 5.64028 2.99445 6.17917 3.24584C6.8 3.54167 7.32917 3.85417 7.82917 4.20209L7.79167 4.17709C8.06111 4.34515 8.32986 4.52987 8.59792 4.73126C8.86597 4.93265 9.15139 5.13473 9.45417 5.33751H10.1604C10.6979 5.33751 11.2688 5.3632 11.8729 5.41459C12.4833 5.46251 13.0479 5.57709 13.5854 5.75626L13.5354 5.74167C14.5375 6.03959 15.3979 6.39167 16.2146 6.81459L16.1292 6.77501C16.9528 7.19445 17.734 7.63959 18.4729 8.11042C19.7 8.87501 20.7604 9.65834 21.7583 10.5146L21.7229 10.4854C22.7646 11.3771 23.7104 12.2917 24.5979 13.2583L24.6188 13.2833C25.4854 14.2292 26.3125 15.2563 27.0688 16.3333L27.1333 16.4313C27.8292 17.4146 28.5313 18.5521 29.1625 19.7313L29.25 19.9083C29.4188 20.2292 29.5896 20.6229 29.7375 21.025L29.7604 21.0938C29.8951 21.4799 30.0458 21.8757 30.2125 22.2813C30.5819 23.1215 30.9778 23.9695 31.4 24.825C31.8222 25.6806 32.2181 26.5125 32.5875 27.3208L33.6958 29.7396C34.0854 30.5854 34.5208 31.3146 35.0271 31.9875L35.0042 31.9563C35.4271 32.4083 35.9917 32.725 36.625 32.8354L36.6417 32.8375C37.4083 33.0292 38.0542 33.2458 38.6792 33.5021L38.5812 33.4667C38.8792 33.6021 39.2625 33.7458 39.6562 33.8729L39.7396 33.8958C40.1813 34.0313 40.5646 34.2104 40.9167 34.4354L40.8979 34.425C41.5792 34.8063 42.1563 35.1813 42.7063 35.5896L42.6625 35.5583C43.2333 35.9778 43.8042 36.3736 44.375 36.7458C44.6444 36.9472 45.0965 37.241 45.7313 37.6271C46.366 38.0132 46.7021 38.3743 46.7396 38.7104C46.5021 38.7021 46.2208 38.6958 45.9396 38.6958C44.9146 38.6958 43.9062 38.7625 42.9187 38.8917L43.0354 38.8792C41.9187 39.0292 40.9062 39.3021 39.9542 39.6917L40.0375 39.6625C39.8021 39.7646 39.5208 39.8583 39.2292 39.9313L39.1896 39.9396C38.8938 39.9833 38.6646 40.2208 38.6354 40.5167C38.7625 40.675 38.8646 40.8604 38.9333 41.0604L38.9375 41.0729C39.0083 41.2854 39.0938 41.4688 39.1979 41.6396L39.1917 41.6271C39.4396 42.0667 39.7062 42.4458 40.0062 42.7958L39.9979 42.7854C40.2917 43.1479 40.6229 43.4625 40.9896 43.7313L41.0042 43.7417C41.3431 44.0111 41.6958 44.2882 42.0625 44.5729C42.3979 44.8354 42.7771 45.0938 43.1708 45.3271L43.2208 45.3542C43.8125 45.7167 44.5 46.0625 45.2167 46.3521L45.3125 46.3854C46.0917 46.6979 46.7604 47.0604 47.3812 47.4917L47.3479 47.4688C47.7521 47.7035 48.1549 47.9639 48.5562 48.25C48.9576 48.5361 49.3438 48.8132 49.7146 49.0813C49.8667 49.2313 50 49.3979 50.1125 49.5792L50.1187 49.5896C50.3083 49.8063 50.5708 49.9542 50.8687 49.9917H50.875V49.8917C50.6917 49.7521 50.5562 49.5583 50.4917 49.3354L50.4896 49.3271C50.4375 49.1146 50.3604 48.9292 50.2562 48.7583L50.2604 48.7667L50.2687 48.775ZM11.5688 8.76459C11.2993 8.76459 11.0472 8.77292 10.8125 8.78959C10.5729 8.80626 10.35 8.85001 10.1396 8.92084L10.1583 8.91459V8.96459H10.2583C10.3931 9.16598 10.5625 9.39237 10.7667 9.64376C10.9708 9.89515 11.1556 10.1389 11.3208 10.375L12.1271 12.0375L12.2271 11.9875C12.4625 11.8167 12.6438 11.5875 12.7521 11.3188L12.7563 11.3083C12.8646 11.0188 12.9271 10.6813 12.9271 10.3313C12.9271 10.2938 12.9271 10.2563 12.925 10.2188V10.225C12.8313 10.1333 12.7542 10.025 12.7 9.90417L12.6979 9.89792L12.5292 9.51876C12.4188 9.34376 12.2646 9.20626 12.0833 9.11876L12.0771 9.11667C11.8813 9.02292 11.7146 8.90417 11.5688 8.76459Z" fill="black"/>
</g>
<defs>
<clipPath id="clip0_13_44">
<rect width="50" height="50" fill="white"/>
</clipPath>
</defs>
</svg>
