<svg width="30" height="30" viewBox="0 0 30 30" fill="none" xmlns="http://www.w3.org/2000/svg">
<path d="M12.216 7.064C11.834 2.67 7.25 0.514001 7.056 0.426001C6.87465 0.340749 6.67141 0.313511 6.474 0.348001C1.182 1.226 0.386002 4.306 0.354002 4.434C0.310465 4.61237 0.317389 4.79934 0.374002 4.974C6.686 24.558 19.804 28.188 24.116 29.382C24.448 29.474 24.722 29.548 24.93 29.616C25.1674 29.6936 25.4252 29.6786 25.652 29.574C25.784 29.514 28.9 28.046 29.662 23.258C29.6958 23.049 29.6622 22.8346 29.566 22.646C29.498 22.514 27.868 19.412 23.348 18.316C23.1947 18.2768 23.0341 18.2754 22.8801 18.312C22.7261 18.3486 22.5833 18.422 22.464 18.526C21.038 19.744 19.068 21.042 18.218 21.176C12.52 18.39 9.338 13.044 9.218 12.03C9.148 11.46 10.454 9.458 11.956 7.83C12.0504 7.72754 12.1223 7.60645 12.1671 7.47452C12.2119 7.3426 12.2285 7.20276 12.216 7.064Z" fill="black"/>
</svg>
