<svg width="24" height="24" viewBox="0 0 24 24" fill="none" xmlns="http://www.w3.org/2000/svg">
<g clip-path="url(#clip0_11_17)">
<path d="M21.953 14.917L21.957 14.913L21.951 14.917H21.952H21.953Z" fill="black"/>
<path d="M18.991 14.727L18.993 14.729L18.99 14.731C18.845 14.784 18.725 14.806 18.624 14.851C18.521 14.892 18.438 14.967 18.389 15.063L18.388 15.065C18.326 15.18 18.272 15.384 18.288 15.731C18.329 15.761 18.379 15.784 18.43 15.8L18.434 15.801C18.603 15.853 18.886 15.887 19.202 15.882C19.832 15.875 20.608 15.726 21.02 15.532C21.375 15.363 21.679 15.159 21.95 14.917C20.574 15.205 19.797 15.128 19.32 14.929C19.196 14.875 19.087 14.808 18.991 14.727Z" fill="black"/>
<path d="M17.58 4.151L17.586 4.16L17.593 4.168L17.58 4.151Z" fill="black"/>
<path d="M12.317 19.299C12.316 19.274 12.317 19.248 12.316 19.223C12.316 19.213 12.315 19.206 12.315 19.196L12.317 19.299ZM11.262 14.886C11.204 14.857 11.136 14.836 11.063 14.826H11.06V14.824H11.039C10.987 14.829 10.911 14.847 10.763 15.012C10.419 15.402 10.299 15.647 10.015 15.876C9.731 16.104 9.363 16.226 8.627 16.379C8.394 16.427 8.26 16.48 8.172 16.523C8.201 16.547 8.198 16.553 8.241 16.576C8.349 16.636 8.487 16.689 8.599 16.718C8.915 16.798 9.435 16.891 9.977 16.798C10.519 16.704 11.083 16.441 11.564 15.758C11.647 15.64 11.656 15.466 11.588 15.279C11.52 15.092 11.368 14.931 11.262 14.886ZM15.3 1.50201L15.243 1.51301C15.262 1.50901 15.283 1.50701 15.302 1.50301C15.301 1.50301 15.301 1.50201 15.3 1.50201ZM18.082 6.90001C17.411 6.90901 17.035 7.08401 16.837 7.31301C16.557 7.63801 16.531 8.20801 16.705 8.91001C16.878 9.61301 17.235 10.399 17.571 11.052C17.739 11.379 17.902 11.673 18.033 11.912C18.165 12.152 18.262 12.322 18.321 12.467C18.375 12.601 18.436 12.719 18.497 12.829C18.757 12.274 18.803 11.729 18.777 11.161C18.743 10.458 18.581 9.73901 18.605 9.01101C18.632 8.16001 18.798 7.60601 18.812 6.94801C18.593 6.91801 18.339 6.90001 18.082 6.90001ZM18.206 7.40601L18.205 7.41401C18.205 7.41701 18.205 7.42001 18.205 7.42401C18.205 7.47001 18.192 7.51401 18.169 7.55001L18.17 7.54901C18.139 7.60601 18.103 7.65601 18.061 7.69901C17.963 7.80801 17.832 7.88401 17.684 7.91001L17.68 7.91101C17.659 7.91401 17.635 7.91501 17.61 7.91501C17.484 7.91501 17.368 7.87501 17.273 7.80701L17.275 7.80801C17.226 7.77401 17.183 7.73501 17.148 7.69101L17.147 7.69001C17.116 7.65601 17.094 7.61201 17.085 7.56501V7.56301C17.085 7.55801 17.084 7.55301 17.084 7.54801C17.084 7.50501 17.1 7.46501 17.127 7.43501C17.159 7.39801 17.197 7.36801 17.241 7.34601L17.243 7.34501C17.338 7.29101 17.466 7.25101 17.611 7.22901C17.665 7.22101 17.719 7.21701 17.769 7.21601V7.21901H17.818C17.883 7.22101 17.943 7.22801 17.996 7.24101C18.049 7.25301 18.095 7.27101 18.132 7.29601C18.169 7.32101 18.197 7.35901 18.206 7.40601ZM7.077 11.307C7.077 11.127 7.091 10.951 7.117 10.778L7.115 10.797C7.217 10.058 7.231 9.36701 7.219 8.82101C7.207 8.28901 7.169 7.93501 7.169 7.71401C7.169 7.71101 7.169 7.70801 7.169 7.70501C7.169 7.70201 7.169 7.69801 7.169 7.69501V7.69001L7.168 7.68401C7.168 7.68201 7.168 7.68001 7.168 7.67801C7.168 6.49401 7.376 5.35901 7.753 4.30601C8.03 3.56201 8.442 2.80701 9.059 2.19501C8.452 1.99301 7.376 1.68501 6.21 1.62701C6.098 1.62101 5.967 1.61701 5.836 1.61701L5.835 1.61801C5.71 1.61801 5.584 1.62201 5.46 1.62901C4.462 1.68701 3.518 1.98001 2.844 2.70401C2.168 3.42801 1.723 4.61501 1.82 6.58001C1.839 6.95201 1.999 7.99401 2.273 9.23201C2.548 10.47 2.935 11.927 3.401 13.214C3.868 14.501 4.434 15.621 4.972 16.151C5.243 16.416 5.478 16.523 5.691 16.514C5.905 16.504 6.163 16.379 6.478 15.996C7.097 15.242 7.682 14.575 8.286 13.927L8.266 13.948C7.536 13.303 7.077 12.36 7.077 11.307Z" fill="black"/>
<path d="M12.396 1.56798V1.56598C11.228 1.56898 10.391 1.92598 9.755 2.46098C9.1 3.01398 8.661 3.77098 8.372 4.54598C8.029 5.46598 7.912 6.35598 7.865 6.95998L7.878 6.95198C8.231 6.75198 8.694 6.55198 9.19 6.43598C9.686 6.31998 10.22 6.28498 10.704 6.47498C11.188 6.66498 11.588 7.11198 11.733 7.78998C12.428 11.047 11.517 12.258 11.181 13.172C11.074 13.435 10.963 13.773 10.87 14.118L10.854 14.185C10.896 14.175 10.939 14.163 10.981 14.159C11.218 14.139 11.404 14.219 11.514 14.267C11.852 14.409 12.084 14.707 12.209 15.047C12.242 15.136 12.265 15.232 12.279 15.331C12.292 15.365 12.299 15.405 12.299 15.446C12.299 15.45 12.299 15.454 12.299 15.458C12.283 15.958 12.273 16.545 12.273 17.135C12.273 17.834 12.287 18.53 12.313 19.223C12.336 19.749 12.369 20.215 12.41 20.582C12.453 20.956 12.513 21.239 12.551 21.335C12.677 21.655 12.862 22.074 13.196 22.359C13.53 22.643 14.009 22.833 14.884 22.643C15.643 22.478 16.111 22.249 16.424 21.92C16.737 21.591 16.923 21.133 17.042 20.432C17.221 19.382 17.58 16.337 17.624 15.764C17.604 15.332 17.667 15 17.804 14.747C17.944 14.487 18.162 14.328 18.349 14.242C18.443 14.199 18.531 14.17 18.603 14.149C18.515 14.022 18.436 13.916 18.354 13.813L18.363 13.824C18.104 13.508 17.883 13.145 17.716 12.754L17.705 12.725C17.604 12.516 17.519 12.358 17.43 12.203L17.451 12.242C17.32 12.002 17.154 11.702 16.98 11.365C16.632 10.69 16.254 9.87198 16.057 9.07498C15.861 8.27898 15.833 7.45498 16.335 6.87398C16.779 6.35798 17.56 6.14398 18.731 6.26398C18.697 6.15898 18.676 6.07198 18.617 5.93198C18.332 5.26198 17.989 4.68398 17.582 4.15998C16.589 2.87798 14.984 1.60898 12.506 1.56798H12.396ZM11.622 16.666C11.622 16.678 11.622 16.689 11.622 16.701V16.666Z" fill="black"/>
<path d="M7.851 7.76999L7.853 7.76899L7.856 7.76599L7.851 7.76999Z" fill="black"/>
<path d="M14.231 0.420992C14.248 0.415992 14.266 0.413992 14.282 0.409992L14.302 0.403992L14.231 0.420992Z" fill="black"/>
<path d="M9.321 7.09299L9.331 7.09199L9.339 7.08899L9.321 7.09299Z" fill="black"/>
<path d="M10.56 12.937C10.961 11.843 11.75 11.045 11.086 7.93102C10.977 7.42102 10.762 7.21501 10.466 7.09901C10.322 7.04601 10.155 7.01501 9.98 7.01501C9.969 7.01501 9.957 7.01501 9.946 7.01501H9.948C9.735 7.01701 9.529 7.04401 9.331 7.09201C8.911 7.19801 8.541 7.34801 8.197 7.54001C8.068 7.61101 7.957 7.68501 7.853 7.76801L7.834 7.78601C7.84 7.93201 7.868 8.28601 7.88 8.80701C7.892 9.37701 7.878 10.104 7.769 10.891C7.533 12.601 8.759 14.017 10.199 14.019C10.284 13.668 10.422 13.312 10.56 12.937ZM9.709 7.96801C9.662 7.92001 9.624 7.86601 9.593 7.80701L9.591 7.80301C9.565 7.76101 9.55 7.71001 9.55 7.65501C9.55 7.64501 9.551 7.63501 9.552 7.62501C9.567 7.51701 9.655 7.46202 9.74 7.43102C9.819 7.40502 9.907 7.39001 10.001 7.39001C10.015 7.39001 10.029 7.39001 10.045 7.39101L10.044 7.38701C10.096 7.38701 10.152 7.39201 10.208 7.40001C10.359 7.42101 10.494 7.46201 10.596 7.52201C10.647 7.55001 10.691 7.58501 10.726 7.62701L10.727 7.62801C10.761 7.66701 10.781 7.71801 10.781 7.77501C10.781 7.78301 10.781 7.79101 10.78 7.79901C10.77 7.85901 10.743 7.91001 10.706 7.95201C10.665 8.00201 10.619 8.04502 10.567 8.08102L10.565 8.08201C10.464 8.15601 10.337 8.20001 10.2 8.20001C10.173 8.20001 10.146 8.19801 10.12 8.19501H10.123C9.957 8.16701 9.815 8.08501 9.709 7.96801Z" fill="black"/>
<path d="M8.177 7.55002C8.184 7.54602 8.191 7.54402 8.197 7.54002C8.198 7.54002 8.199 7.53902 8.2 7.53802L8.177 7.55002ZM18.115 3.75202C18.548 4.30702 18.923 4.93902 19.212 5.61702L19.233 5.67202C19.342 5.93602 19.415 6.15902 19.456 6.33202C19.477 6.41902 19.491 6.49202 19.496 6.56802C19.498 6.60602 19.5 6.64502 19.484 6.71202C19.484 6.71502 19.479 6.72202 19.478 6.72502C19.508 7.60102 19.293 8.19502 19.268 9.03102C19.248 9.63702 19.401 10.349 19.439 11.126C19.475 11.856 19.388 12.658 18.919 13.445C18.959 13.493 18.994 13.541 19.032 13.589C20.271 11.614 21.164 9.42902 21.64 7.56602C21.895 6.56302 22.03 5.65402 22.042 4.93402C22.052 4.21402 21.919 3.69202 21.751 3.47402C20.425 1.75802 18.632 1.32102 17.128 1.30902L16.984 1.31002C16.404 1.31902 15.844 1.38602 15.303 1.50302C16.531 2.05502 17.461 2.90502 18.115 3.75202Z" fill="black"/>
<path d="M12.561 0.258H12.551C11.387 0.238 10.388 0.524 9.581 1C8.787 0.721 7.14 0.24 5.403 0.336C4.194 0.403 2.874 0.775 1.896 1.82C0.920997 2.865 0.405997 4.482 0.513997 6.682C0.543997 7.289 0.714997 8.279 0.997997 9.561C1.282 10.843 1.68 12.344 2.177 13.713C2.674 15.083 3.218 16.313 4.069 17.149C4.494 17.568 5.079 17.92 5.768 17.891C6.252 17.871 6.689 17.656 7.067 17.339C7.251 17.584 7.447 17.691 7.626 17.79C7.851 17.915 8.07 18 8.297 18.056C8.705 18.159 9.403 18.297 10.221 18.156C10.5 18.109 10.793 18.017 11.085 17.886C11.096 18.216 11.109 18.539 11.121 18.866C11.162 19.902 11.187 20.859 11.494 21.698C11.543 21.835 11.679 22.541 12.212 23.164C12.745 23.788 13.791 24.177 14.981 23.919C15.821 23.737 16.888 23.409 17.598 22.387C18.299 21.377 18.615 19.928 18.678 17.578C18.694 17.451 18.713 17.343 18.732 17.242L18.899 17.257H18.919C19.815 17.298 20.787 17.169 21.599 16.787C22.318 16.45 22.862 16.109 23.259 15.504C23.358 15.354 23.466 15.173 23.496 14.861C23.526 14.549 23.349 14.061 23.055 13.836C22.467 13.384 22.098 13.556 21.702 13.639C21.349 13.722 20.941 13.774 20.523 13.785H20.515C21.657 11.838 22.476 9.77 22.943 7.94C23.22 6.86 23.375 5.864 23.387 4.993C23.4 4.122 23.33 3.351 22.814 2.684C21.203 0.6 18.938 0.024 17.185 0.004C17.131 0.003 17.076 0.002 17.022 0.003V0C16.068 0.008 15.15 0.152 14.281 0.409L14.24 0.423C13.738 0.329 13.155 0.269 12.561 0.258ZM14.93 0.895C15.542 0.744 16.246 0.653 16.97 0.644H16.976L16.977 0.64C18.635 0.624 20.752 1.095 22.273 3.062C22.615 3.504 22.717 4.15 22.705 4.946C22.692 5.741 22.547 6.693 22.281 7.736C21.765 9.756 20.791 12.111 19.419 14.224C19.464 14.257 19.516 14.286 19.57 14.308L19.575 14.31C19.861 14.43 20.514 14.533 21.817 14.262C22.145 14.192 22.385 14.145 22.634 14.337C22.746 14.433 22.816 14.575 22.816 14.734C22.816 14.744 22.816 14.754 22.815 14.764V14.763C22.8 14.89 22.755 15.004 22.686 15.099C22.434 15.482 21.937 15.845 21.301 16.144C20.737 16.41 19.928 16.549 19.211 16.557C18.851 16.561 18.52 16.533 18.238 16.444L18.22 16.437C18.111 17.497 17.861 19.59 17.698 20.545C17.568 21.315 17.34 21.927 16.904 22.385C16.469 22.843 15.854 23.119 15.026 23.299C14.001 23.522 13.253 23.282 12.771 22.871C12.29 22.461 12.07 21.917 11.937 21.584C11.846 21.354 11.799 21.056 11.753 20.658C11.707 20.26 11.674 19.773 11.651 19.224C11.629 18.666 11.617 18.01 11.617 17.351C11.617 17.134 11.619 16.918 11.621 16.701C11.208 17.085 10.686 17.355 10.106 17.458L10.088 17.461C9.407 17.578 8.8 17.463 8.437 17.371C8.244 17.322 8.076 17.253 7.918 17.167C7.752 17.077 7.594 16.974 7.488 16.773C7.446 16.696 7.421 16.603 7.421 16.505C7.421 16.466 7.425 16.427 7.433 16.391C7.469 16.257 7.544 16.143 7.647 16.063L7.648 16.062C7.844 15.901 8.102 15.811 8.493 15.729C9.203 15.581 9.451 15.48 9.602 15.359C9.73 15.255 9.876 15.045 10.132 14.737C10.131 14.728 10.13 14.713 10.129 14.699V14.696C9.645 14.682 9.194 14.551 8.8 14.33L8.815 14.338C8.667 14.496 7.91 15.306 6.988 16.43C6.6 16.9 6.171 17.17 5.719 17.189C5.267 17.208 4.858 16.978 4.51 16.637C3.815 15.954 3.261 14.779 2.778 13.451C2.296 12.123 1.904 10.644 1.625 9.384C1.345 8.124 1.181 7.108 1.157 6.618C1.053 4.536 1.534 3.133 2.359 2.248C3.185 1.363 4.317 1.028 5.42 0.964C7.401 0.849 9.281 1.548 9.662 1.698C10.396 1.194 11.341 0.88 12.52 0.9C13.114 0.909 13.685 0.988 14.231 1.129L14.181 1.118L14.201 1.109C14.392 1.037 14.636 0.964 14.886 0.904L14.93 0.895Z" fill="black"/>
</g>
<defs>
<clipPath id="clip0_11_17">
<rect width="24" height="24" fill="white"/>
</clipPath>
</defs>
</svg>
