<svg width="50" height="50" viewBox="0 0 50 50" fill="none" xmlns="http://www.w3.org/2000/svg">
<path d="M22.4792 21.0948C21.6195 21.5363 20.9263 22.1947 20.4873 22.9867C20.0482 23.7787 19.8831 24.6687 20.0126 25.5442C20.1422 26.4197 20.5607 27.2414 21.2152 27.9053C21.8697 28.5692 22.7309 29.0456 23.6897 29.2741C24.6485 29.5027 25.662 29.4731 26.602 29.1892C27.5419 28.9054 28.3661 28.3799 28.9704 27.6793C29.5746 26.9787 29.9318 26.1344 29.9967 25.2532C30.0616 24.372 29.8312 23.4935 29.3349 22.7288C28.6693 21.7034 27.5731 20.9552 26.2874 20.6488C25.0017 20.3423 23.6319 20.5028 22.4792 21.0948ZM44.9741 25.9389C44.6446 25.604 44.2969 25.2681 43.9311 24.9313C44.1866 24.6923 44.4339 24.4536 44.673 24.215C49.1857 19.7044 51.0903 15.1808 49.3255 12.4612C47.6333 9.85372 42.5994 9.07667 36.2975 10.1667C35.6768 10.2748 35.0595 10.3966 34.4456 10.5323C34.3281 10.1719 34.2031 9.81361 34.0706 9.45735C31.9327 3.72604 28.4792 -0.00197421 24.9495 7.84338e-07C21.5648 0.00137578 18.2936 3.49272 16.2067 8.89372C16.0014 9.42654 15.8115 9.9638 15.6369 10.5055C15.2265 10.4159 14.8143 10.3332 14.4004 10.2572C7.75147 9.0428 2.39612 9.84265 0.634762 12.5637C-1.05418 15.1731 0.712129 19.4383 4.93021 23.744C5.34854 24.17 5.77871 24.5865 6.22072 24.9934C5.69965 25.4709 5.20623 25.9481 4.74634 26.4226C0.630491 30.6676 -1.03482 34.863 0.651399 37.4611C2.39286 40.1448 7.67284 41.0221 14.0994 39.897C14.6202 39.8052 15.1382 39.7018 15.6532 39.587C15.8419 40.173 16.0489 40.7538 16.2742 41.3295C18.3518 46.6222 21.6047 50.0011 24.9774 50C28.4605 49.9982 31.9522 46.3678 34.0677 40.8532C34.2348 40.4174 34.393 39.9648 34.5429 39.4988C35.2082 39.646 35.8778 39.7767 36.5517 39.8908C42.7437 40.933 47.6592 40.1133 49.3423 37.5133C51.0804 34.8276 49.2884 30.3232 44.9741 25.9389ZM2.71542 13.6296C3.79977 11.9546 8.17635 11.3011 13.9172 12.3496C14.2841 12.4167 14.6573 12.4917 15.0367 12.5746C14.4762 14.7802 14.0808 17.0165 13.8529 19.2687C11.7815 20.5651 9.80654 21.9794 7.94049 23.5027C7.52935 23.1245 7.1292 22.737 6.74002 22.3405C3.12588 18.6512 1.69759 15.202 2.71542 13.6296ZM13.6378 27.9497C12.203 26.9832 10.8696 25.9931 9.65933 24.9973C10.8687 24.0076 12.203 23.0208 13.6349 22.0569C13.5834 23.0388 13.5579 24.0215 13.5584 25.0049C13.5591 25.9869 13.5856 26.9685 13.6378 27.9497ZM13.6361 37.8012C11.2003 38.283 8.68575 38.362 6.21791 38.0341C5.54139 37.9872 4.88287 37.8174 4.28302 37.5352C3.68318 37.253 3.15476 36.8644 2.73043 36.3933C1.70731 34.8166 3.0445 31.4483 6.56446 27.8178C7.007 27.3628 7.46404 26.9197 7.9356 26.4884C9.80193 28.0197 11.7801 29.4395 13.8571 30.7386C14.0881 33.0196 14.4882 35.2845 15.0548 37.5186C14.5846 37.6232 14.1117 37.7174 13.6361 37.8012ZM33.5918 17.7029C32.6493 17.1746 31.6951 16.6632 30.7293 16.1688C29.7789 15.6821 28.817 15.2137 27.8437 14.7636C29.5102 14.1403 31.1483 13.6079 32.7297 13.1741C33.1025 14.6698 33.3902 16.1814 33.5918 17.7029ZM18.4774 9.588C20.2653 4.96016 22.9109 2.13669 24.9508 2.13592C27.1233 2.13499 29.946 5.18156 31.7918 10.13C31.9117 10.4526 32.025 10.777 32.1318 11.1032C29.7069 11.7722 27.3345 12.5834 25.03 13.5312C22.735 12.5722 20.37 11.7521 17.951 11.0763C18.1127 10.5765 18.2882 10.0803 18.4774 9.588ZM17.3523 13.1475C19.0018 13.6094 20.6241 14.1451 22.213 14.7525C20.2443 15.6563 18.3265 16.6408 16.4595 17.7059C16.685 16.111 16.9852 14.5828 17.3523 13.1475ZM16.4636 32.2991C17.3946 32.8293 18.3393 33.3399 19.2975 33.8309C20.275 34.3316 21.2655 34.8112 22.2689 35.2698C20.6679 35.8982 19.0317 36.453 17.3667 36.9321C16.9953 35.4769 16.6919 33.9219 16.4636 32.2991ZM31.7953 40.1629C31.0477 42.2807 29.8682 44.258 28.316 45.996C27.9324 46.4938 27.4379 46.9165 26.8635 47.2378C26.2891 47.559 25.6467 47.772 24.9761 47.8636C22.9297 47.8647 20.3177 45.1511 18.5409 40.625C18.3317 40.0899 18.1392 39.5499 17.9634 39.005C20.394 38.3074 22.7686 37.4641 25.071 36.4808C27.3944 37.4347 29.7858 38.2519 32.2296 38.927C32.0961 39.342 31.9514 39.7539 31.7953 40.1629ZM32.8133 36.8523C31.2136 36.4123 29.5518 35.871 27.8613 35.2385C28.8142 34.7924 29.7741 34.3212 30.7409 33.825C31.733 33.3153 32.6998 32.7929 33.6414 32.2578C33.4538 33.8009 33.1774 35.3344 32.8133 36.8523ZM34.0674 24.9957C34.0695 26.5139 34.0162 28.0309 33.9076 29.5467C32.523 30.3803 31.0613 31.1942 29.5405 31.9753C28.026 32.7532 26.5253 33.4681 25.0533 34.115C23.5043 33.4547 21.9851 32.743 20.4958 31.9801C19.0149 31.2217 17.5679 30.4142 16.1549 29.5576C16.0258 28.0422 15.9607 26.5241 15.9597 25.0033C15.9585 23.4835 16.0225 21.9658 16.151 20.4492C17.5352 19.6082 18.9862 18.795 20.4865 18.0244C21.9937 17.2502 23.5131 16.5384 25.0242 15.8932C26.5541 16.5547 28.0565 17.2635 29.5313 18.0198C31.0112 18.7765 32.4622 19.5754 33.8843 20.4165C34.0064 21.9406 34.0673 23.4669 34.0674 24.9957ZM36.756 12.2636C42.1554 11.3293 46.2265 11.9578 47.2463 13.5292C48.3328 15.2032 46.7757 18.9004 42.8797 22.795C42.6645 23.0099 42.441 23.2258 42.2096 23.4425C40.3112 21.9159 38.2982 20.5061 36.1846 19.2228C35.9713 16.9952 35.5906 14.7829 35.0452 12.6005C35.6265 12.4733 36.1968 12.361 36.756 12.2636ZM36.3911 21.9753C37.8168 22.9014 39.1875 23.8926 40.4978 24.9449C39.1933 26.0146 37.8269 27.0229 36.4041 27.9657C36.4476 26.9758 36.4691 25.9855 36.4684 24.9947C36.4679 23.988 36.4421 22.9815 36.3911 21.9753ZM47.2613 36.4472C46.2399 38.0251 42.2931 38.6831 36.9977 37.7918C36.3909 37.6899 35.7682 37.5686 35.1297 37.4279C35.662 35.2174 36.0257 32.9775 36.2185 30.7235C38.3286 29.4178 40.3352 27.9845 42.2242 26.4338C42.5547 26.7393 42.8691 27.0433 43.1674 27.346C44.8565 28.9798 46.1931 30.8762 47.1103 32.9406C47.4036 33.4848 47.5684 34.0768 47.5943 34.68C47.6203 35.2831 47.5069 35.8846 47.2613 36.4472Z" fill="black"/>
</svg>
