<svg width="50" height="50" viewBox="0 0 50 50" fill="none" xmlns="http://www.w3.org/2000/svg">
<g clip-path="url(#clip0_13_32)">
<path d="M24.9989 0H0L4.44562 45.1462L24.9989 50L45.5544 45.1462L50 0H24.9989ZM41.9143 42.4865L25.0011 46.4808L8.08794 42.4865L4.23874 3.39808H45.7613L41.9143 42.4865Z" fill="black"/>
<path d="M25.5315 40.2904L38.9608 36.8923L40.3055 19.9039H26.6495L40.6598 14.5942L41.111 8.98077H8.61172L9.14872 14.0769H24.9087L9.68572 19.6596L10.2227 25.2423H32.9856L32.5146 32.525L25.5315 34.4654L17.2059 33.2519L16.9374 28.8827H10.7597L11.5652 37.1365L25.5315 40.2904Z" fill="black"/>
</g>
<defs>
<clipPath id="clip0_13_32">
<rect width="50" height="50" fill="white"/>
</clipPath>
</defs>
</svg>
