<svg width="56" height="56" viewBox="0 0 56 56" fill="none" xmlns="http://www.w3.org/2000/svg">
<path d="M9.25 53V40.5M9.25 15.5V3M3 9.25H15.5M3 46.75H15.5M30.5 5.5L26.1645 16.7722C25.4595 18.6052 25.107 19.5218 24.5588 20.2927C24.073 20.976 23.476 21.573 22.7927 22.0588C22.0218 22.607 21.1052 22.9595 19.2721 23.6645L8 28L19.2721 32.3355C21.1052 33.0405 22.0218 33.393 22.7927 33.9412C23.476 34.427 24.073 35.024 24.5588 35.7072C25.107 36.4782 25.4595 37.3948 26.1645 39.2278L30.5 50.5L34.8355 39.2278C35.5405 37.3948 35.893 36.4782 36.4412 35.7072C36.927 35.024 37.524 34.427 38.2072 33.9412C38.9782 33.393 39.8948 33.0405 41.7278 32.3355L53 28L41.7278 23.6645C39.8948 22.9595 38.9782 22.607 38.2072 22.0588C37.524 21.573 36.927 20.976 36.4412 20.2927C35.893 19.5218 35.5405 18.6052 34.8355 16.7722L30.5 5.5Z" stroke="#F0532C" stroke-width="5" stroke-linecap="round" stroke-linejoin="round"/>
</svg>
