<svg width="50" height="50" viewBox="0 0 50 50" fill="none" xmlns="http://www.w3.org/2000/svg">
<path d="M12.0322 17.5105C12.0327 17.5105 12.0316 17.5105 12.0322 17.5105H2.23219C1.55609 17.5101 1.00783 18.069 1.00738 18.7586C1.00738 18.7581 1.00738 18.7592 1.00738 18.7586V48.7504C1.00693 49.4402 1.55475 49.9995 2.2307 50C2.23025 50 2.2313 50 2.2307 50H12.0307C12.7068 50.0005 13.2551 49.4416 13.2555 48.7518C13.2555 48.7522 13.2555 48.7513 13.2555 48.7518V18.7601C13.256 18.0703 12.7082 17.511 12.0322 17.5105ZM10.8059 47.5008H3.45701V20.0097H10.8059V47.5008ZM37.7518 17.5105C35.0944 17.5107 32.5112 18.4055 30.403 20.0561V18.7601C30.4034 18.0703 29.8556 17.511 29.1796 17.5105C29.1801 17.5105 29.179 17.5105 29.1796 17.5105H19.3796C18.7035 17.5101 18.1552 18.069 18.1548 18.7586C18.1548 18.7581 18.1548 18.7592 18.1548 18.7586V48.7504C18.1543 49.4402 18.7022 49.9995 19.3783 50C19.3778 50 19.3787 50 19.3783 50H29.1781C29.8542 50.0005 30.4025 49.4416 30.403 48.7518C30.403 48.7522 30.403 48.7513 30.403 48.7518V35.0049C30.403 32.9344 32.048 31.2561 34.0774 31.2561C36.1067 31.2561 37.7518 32.9344 37.7518 35.0049V48.7504C37.7514 49.4402 38.2992 49.9995 38.9753 50C38.9749 50 38.9758 50 38.9753 50H48.7752C49.4513 50.0005 49.9996 49.4416 50 48.7518C50 48.7522 50 48.7513 50 48.7518V30.0065C49.9921 23.1085 44.513 17.5186 37.7518 17.5105ZM47.5504 47.5008H40.2015V35.0049C40.2015 31.5541 37.4597 28.7569 34.0774 28.7569C30.6951 28.7569 27.9533 31.5541 27.9533 35.0049V47.5008H20.6044V20.0097H27.9533V23.0165C27.9533 23.5475 28.2825 24.0204 28.774 24.1954C29.2643 24.3757 29.8127 24.2153 30.1352 23.7975C33.4729 19.4819 39.6078 18.7441 43.8378 22.1495C46.194 24.0465 47.5634 26.9443 47.5504 30.0065V47.5008ZM8.03287 0.0207602C7.74476 0.000167384 7.4556 -0.00135776 7.16734 0.0161841C3.47017 -0.241454 0.268334 2.60751 0.0158052 6.37948C0.00563826 6.53126 0.000554893 6.68318 0.000255793 6.83527C-0.0315906 10.5752 2.91428 13.6333 6.58005 13.6658C6.72971 13.6672 6.87923 13.6632 7.02859 13.6542H7.09797C10.7881 13.9176 13.9887 11.0792 14.247 7.31439C14.5052 3.54959 11.723 0.284194 8.03287 0.0207602ZM7.94825 11.1622C7.66537 11.1887 7.3804 11.1864 7.09797 11.155H7.02859C4.68646 11.3387 2.64201 9.5506 2.462 7.16109C2.28198 4.77172 4.03458 2.68576 6.37671 2.5021C6.64016 2.48151 6.90479 2.48593 7.16734 2.51537C9.50768 2.29541 11.5798 4.05266 11.7955 6.44034C12.0111 8.82818 10.2887 10.9422 7.94825 11.1622Z" fill="black"/>
</svg>
