<svg width="50" height="50" viewBox="0 0 50 50" fill="none" xmlns="http://www.w3.org/2000/svg">
<circle cx="25" cy="25" r="23" stroke="black" stroke-width="4"/>
<mask id="path-2-outside-1_16_50" maskUnits="userSpaceOnUse" x="9" y="11" width="32" height="11" fill="black">
<rect fill="white" x="9" y="11" width="32" height="11"/>
<path d="M9.5103 21V14.4545H10.4819V15.4773H10.5671C10.7035 15.1278 10.9237 14.8565 11.2276 14.6634C11.5316 14.4673 11.8967 14.3693 12.3228 14.3693C12.7546 14.3693 13.114 14.4673 13.4009 14.6634C13.6907 14.8565 13.9165 15.1278 14.0785 15.4773H14.1467C14.3143 15.1392 14.5657 14.8707 14.9009 14.6719C15.2362 14.4702 15.6381 14.3693 16.1069 14.3693C16.6921 14.3693 17.1708 14.5526 17.543 14.919C17.9151 15.2827 18.1012 15.8494 18.1012 16.6193V21H17.0955V16.6193C17.0955 16.1364 16.9634 15.7912 16.6992 15.5838C16.435 15.3764 16.1239 15.2727 15.766 15.2727C15.3058 15.2727 14.9492 15.4119 14.6964 15.6903C14.4435 15.9659 14.3171 16.3153 14.3171 16.7386V21H13.2944V16.517C13.2944 16.1449 13.1737 15.8452 12.9322 15.6179C12.6907 15.3878 12.3796 15.2727 11.9989 15.2727C11.7376 15.2727 11.4933 15.3423 11.266 15.4815C11.0415 15.6207 10.8597 15.8139 10.7205 16.0611C10.5842 16.3054 10.516 16.5881 10.516 16.9091V21H9.5103ZM22.5991 21.1364C22.0082 21.1364 21.4897 20.9957 21.0437 20.7145C20.6005 20.4332 20.2539 20.0398 20.0039 19.5341C19.7567 19.0284 19.6332 18.4375 19.6332 17.7614C19.6332 17.0795 19.7567 16.4844 20.0039 15.9759C20.2539 15.4673 20.6005 15.0724 21.0437 14.7912C21.4897 14.5099 22.0082 14.3693 22.5991 14.3693C23.19 14.3693 23.707 14.5099 24.1502 14.7912C24.5962 15.0724 24.9428 15.4673 25.19 15.9759C25.44 16.4844 25.565 17.0795 25.565 17.7614C25.565 18.4375 25.44 19.0284 25.19 19.5341C24.9428 20.0398 24.5962 20.4332 24.1502 20.7145C23.707 20.9957 23.19 21.1364 22.5991 21.1364ZM22.5991 20.233C23.0479 20.233 23.4173 20.1179 23.707 19.8878C23.9968 19.6577 24.2113 19.3551 24.3505 18.9801C24.4897 18.6051 24.5593 18.1989 24.5593 17.7614C24.5593 17.3239 24.4897 16.9162 24.3505 16.5384C24.2113 16.1605 23.9968 15.8551 23.707 15.6222C23.4173 15.3892 23.0479 15.2727 22.5991 15.2727C22.1502 15.2727 21.7809 15.3892 21.4911 15.6222C21.2013 15.8551 20.9869 16.1605 20.8477 16.5384C20.7085 16.9162 20.6388 17.3239 20.6388 17.7614C20.6388 18.1989 20.7085 18.6051 20.8477 18.9801C20.9869 19.3551 21.2013 19.6577 21.4911 19.8878C21.7809 20.1179 22.1502 20.233 22.5991 20.233ZM29.7592 21.1364C29.1456 21.1364 28.6172 20.9915 28.174 20.7017C27.7308 20.4119 27.3899 20.0128 27.1513 19.5043C26.9126 18.9957 26.7933 18.4148 26.7933 17.7614C26.7933 17.0966 26.9155 16.5099 27.1598 16.0014C27.407 15.4901 27.7507 15.0909 28.1911 14.804C28.6342 14.5142 29.1513 14.3693 29.7422 14.3693C30.2024 14.3693 30.6172 14.4545 30.9865 14.625C31.3558 14.7955 31.6584 15.0341 31.8942 15.3409C32.13 15.6477 32.2763 16.0057 32.3331 16.4148H31.3274C31.2507 16.1165 31.0803 15.8523 30.8161 15.6222C30.5547 15.3892 30.2024 15.2727 29.7592 15.2727C29.3672 15.2727 29.0234 15.375 28.728 15.5795C28.4354 15.7812 28.2067 16.0668 28.0419 16.4361C27.88 16.8026 27.799 17.233 27.799 17.7273C27.799 18.233 27.8786 18.6733 28.0376 19.0483C28.1996 19.4233 28.4268 19.7145 28.7195 19.9219C29.0149 20.1293 29.3615 20.233 29.7592 20.233C30.0206 20.233 30.2578 20.1875 30.4709 20.0966C30.6839 20.0057 30.8643 19.875 31.0121 19.7045C31.1598 19.5341 31.2649 19.3295 31.3274 19.0909H32.3331C32.2763 19.4773 32.1357 19.8253 31.9112 20.1349C31.6896 20.4418 31.3956 20.6861 31.0291 20.8679C30.6655 21.0469 30.2422 21.1364 29.7592 21.1364ZM34.7408 18.6136L34.7237 17.3693H34.9283L37.7919 14.4545H39.0362L35.9851 17.5398H35.8999L34.7408 18.6136ZM33.8033 21V12.2727H34.8089V21H33.8033ZM37.9624 21L35.4055 17.7614L36.1214 17.0625L39.2408 21H37.9624Z"/>
</mask>
<path d="M9.5103 21V14.4545H10.4819V15.4773H10.5671C10.7035 15.1278 10.9237 14.8565 11.2276 14.6634C11.5316 14.4673 11.8967 14.3693 12.3228 14.3693C12.7546 14.3693 13.114 14.4673 13.4009 14.6634C13.6907 14.8565 13.9165 15.1278 14.0785 15.4773H14.1467C14.3143 15.1392 14.5657 14.8707 14.9009 14.6719C15.2362 14.4702 15.6381 14.3693 16.1069 14.3693C16.6921 14.3693 17.1708 14.5526 17.543 14.919C17.9151 15.2827 18.1012 15.8494 18.1012 16.6193V21H17.0955V16.6193C17.0955 16.1364 16.9634 15.7912 16.6992 15.5838C16.435 15.3764 16.1239 15.2727 15.766 15.2727C15.3058 15.2727 14.9492 15.4119 14.6964 15.6903C14.4435 15.9659 14.3171 16.3153 14.3171 16.7386V21H13.2944V16.517C13.2944 16.1449 13.1737 15.8452 12.9322 15.6179C12.6907 15.3878 12.3796 15.2727 11.9989 15.2727C11.7376 15.2727 11.4933 15.3423 11.266 15.4815C11.0415 15.6207 10.8597 15.8139 10.7205 16.0611C10.5842 16.3054 10.516 16.5881 10.516 16.9091V21H9.5103ZM22.5991 21.1364C22.0082 21.1364 21.4897 20.9957 21.0437 20.7145C20.6005 20.4332 20.2539 20.0398 20.0039 19.5341C19.7567 19.0284 19.6332 18.4375 19.6332 17.7614C19.6332 17.0795 19.7567 16.4844 20.0039 15.9759C20.2539 15.4673 20.6005 15.0724 21.0437 14.7912C21.4897 14.5099 22.0082 14.3693 22.5991 14.3693C23.19 14.3693 23.707 14.5099 24.1502 14.7912C24.5962 15.0724 24.9428 15.4673 25.19 15.9759C25.44 16.4844 25.565 17.0795 25.565 17.7614C25.565 18.4375 25.44 19.0284 25.19 19.5341C24.9428 20.0398 24.5962 20.4332 24.1502 20.7145C23.707 20.9957 23.19 21.1364 22.5991 21.1364ZM22.5991 20.233C23.0479 20.233 23.4173 20.1179 23.707 19.8878C23.9968 19.6577 24.2113 19.3551 24.3505 18.9801C24.4897 18.6051 24.5593 18.1989 24.5593 17.7614C24.5593 17.3239 24.4897 16.9162 24.3505 16.5384C24.2113 16.1605 23.9968 15.8551 23.707 15.6222C23.4173 15.3892 23.0479 15.2727 22.5991 15.2727C22.1502 15.2727 21.7809 15.3892 21.4911 15.6222C21.2013 15.8551 20.9869 16.1605 20.8477 16.5384C20.7085 16.9162 20.6388 17.3239 20.6388 17.7614C20.6388 18.1989 20.7085 18.6051 20.8477 18.9801C20.9869 19.3551 21.2013 19.6577 21.4911 19.8878C21.7809 20.1179 22.1502 20.233 22.5991 20.233ZM29.7592 21.1364C29.1456 21.1364 28.6172 20.9915 28.174 20.7017C27.7308 20.4119 27.3899 20.0128 27.1513 19.5043C26.9126 18.9957 26.7933 18.4148 26.7933 17.7614C26.7933 17.0966 26.9155 16.5099 27.1598 16.0014C27.407 15.4901 27.7507 15.0909 28.1911 14.804C28.6342 14.5142 29.1513 14.3693 29.7422 14.3693C30.2024 14.3693 30.6172 14.4545 30.9865 14.625C31.3558 14.7955 31.6584 15.0341 31.8942 15.3409C32.13 15.6477 32.2763 16.0057 32.3331 16.4148H31.3274C31.2507 16.1165 31.0803 15.8523 30.8161 15.6222C30.5547 15.3892 30.2024 15.2727 29.7592 15.2727C29.3672 15.2727 29.0234 15.375 28.728 15.5795C28.4354 15.7812 28.2067 16.0668 28.0419 16.4361C27.88 16.8026 27.799 17.233 27.799 17.7273C27.799 18.233 27.8786 18.6733 28.0376 19.0483C28.1996 19.4233 28.4268 19.7145 28.7195 19.9219C29.0149 20.1293 29.3615 20.233 29.7592 20.233C30.0206 20.233 30.2578 20.1875 30.4709 20.0966C30.6839 20.0057 30.8643 19.875 31.0121 19.7045C31.1598 19.5341 31.2649 19.3295 31.3274 19.0909H32.3331C32.2763 19.4773 32.1357 19.8253 31.9112 20.1349C31.6896 20.4418 31.3956 20.6861 31.0291 20.8679C30.6655 21.0469 30.2422 21.1364 29.7592 21.1364ZM34.7408 18.6136L34.7237 17.3693H34.9283L37.7919 14.4545H39.0362L35.9851 17.5398H35.8999L34.7408 18.6136ZM33.8033 21V12.2727H34.8089V21H33.8033ZM37.9624 21L35.4055 17.7614L36.1214 17.0625L39.2408 21H37.9624Z" fill="black"/>
<path d="M9.5103 21H9.0103V21.5H9.5103V21ZM9.5103 14.4545V13.9545H9.0103V14.4545H9.5103ZM10.4819 14.4545H10.9819V13.9545H10.4819V14.4545ZM10.4819 15.4773H9.98189V15.9773H10.4819V15.4773ZM10.5671 15.4773V15.9773H10.9087L11.0329 15.659L10.5671 15.4773ZM11.2276 14.6634L11.4958 15.0854L11.4986 15.0836L11.2276 14.6634ZM13.4009 14.6634L13.1189 15.0762L13.1236 15.0794L13.4009 14.6634ZM14.0785 15.4773L13.6248 15.6875L13.7591 15.9773H14.0785V15.4773ZM14.1467 15.4773V15.9773H14.4568L14.5946 15.6994L14.1467 15.4773ZM14.9009 14.6719L15.156 15.1019L15.1587 15.1003L14.9009 14.6719ZM17.543 14.919L17.1921 15.2753L17.1935 15.2767L17.543 14.919ZM18.1012 21V21.5H18.6012V21H18.1012ZM17.0955 21H16.5955V21.5H17.0955V21ZM16.6992 15.5838L16.3905 15.9771L16.3905 15.9771L16.6992 15.5838ZM14.6964 15.6903L15.0648 16.0284L15.0665 16.0265L14.6964 15.6903ZM14.3171 21V21.5H14.8171V21H14.3171ZM13.2944 21H12.7944V21.5H13.2944V21ZM12.9322 15.6179L12.5872 15.9799L12.5895 15.982L12.9322 15.6179ZM11.266 15.4815L11.0048 15.0551L11.0024 15.0566L11.266 15.4815ZM10.7205 16.0611L10.2849 15.8157L10.2839 15.8174L10.7205 16.0611ZM10.516 21V21.5H11.016V21H10.516ZM10.0103 21V14.4545H9.0103V21H10.0103ZM9.5103 14.9545H10.4819V13.9545H9.5103V14.9545ZM9.98189 14.4545V15.4773H10.9819V14.4545H9.98189ZM10.4819 15.9773H10.5671V14.9773H10.4819V15.9773ZM11.0329 15.659C11.1323 15.4043 11.2855 15.219 11.4958 15.0853L10.9594 14.2414C10.5618 14.494 10.2746 14.8514 10.1013 15.2955L11.0329 15.659ZM11.4986 15.0836C11.7083 14.9483 11.9754 14.8693 12.3228 14.8693V13.8693C11.818 13.8693 11.3549 13.9863 10.9567 14.2431L11.4986 15.0836ZM12.3228 14.8693C12.6785 14.8693 12.9333 14.9494 13.1189 15.0762L13.683 14.2505C13.2947 13.9853 12.8307 13.8693 12.3228 13.8693V14.8693ZM13.1236 15.0794C13.3288 15.2162 13.4974 15.4125 13.6248 15.6875L14.5321 15.267C14.3357 14.8432 14.0526 14.4969 13.6783 14.2473L13.1236 15.0794ZM14.0785 15.9773H14.1467V14.9773H14.0785V15.9773ZM14.5946 15.6994C14.7179 15.4507 14.9009 15.2532 15.156 15.1019L14.6458 14.2418C14.2305 14.4882 13.9107 14.8277 13.6987 15.2552L14.5946 15.6994ZM15.1587 15.1003C15.4019 14.9539 15.7109 14.8693 16.1069 14.8693V13.8693C15.5654 13.8693 15.0704 13.9864 14.6431 14.2434L15.1587 15.1003ZM16.1069 14.8693C16.5781 14.8693 16.9251 15.0124 17.1921 15.2753L17.8938 14.5628C17.4165 14.0928 16.8062 13.8693 16.1069 13.8693V14.8693ZM17.1935 15.2767C17.4315 15.5091 17.6012 15.9197 17.6012 16.6193H18.6012C18.6012 15.7792 18.3988 15.0562 17.8924 14.5614L17.1935 15.2767ZM17.6012 16.6193V21H18.6012V16.6193H17.6012ZM18.1012 20.5H17.0955V21.5H18.1012V20.5ZM17.5955 21V16.6193H16.5955V21H17.5955ZM17.5955 16.6193C17.5955 16.0531 17.4391 15.5289 17.0079 15.1905L16.3905 15.9771C16.4877 16.0534 16.5955 16.2196 16.5955 16.6193H17.5955ZM17.0079 15.1905C16.6497 14.9093 16.228 14.7727 15.766 14.7727V15.7727C16.0199 15.7727 16.2204 15.8436 16.3905 15.9771L17.0079 15.1905ZM15.766 14.7727C15.1989 14.7727 14.6946 14.9486 14.3262 15.3542L15.0665 16.0265C15.2039 15.8752 15.4126 15.7727 15.766 15.7727V14.7727ZM14.328 15.3523C13.9792 15.7324 13.8171 16.2079 13.8171 16.7386H14.8171C14.8171 16.4228 14.9079 16.1994 15.0648 16.0284L14.328 15.3523ZM13.8171 16.7386V21H14.8171V16.7386H13.8171ZM14.3171 20.5H13.2944V21.5H14.3171V20.5ZM13.7944 21V16.517H12.7944V21H13.7944ZM13.7944 16.517C13.7944 16.0256 13.6295 15.5876 13.2749 15.2538L12.5895 15.982C12.7178 16.1028 12.7944 16.2642 12.7944 16.517H13.7944ZM13.2771 15.2559C12.9294 14.9246 12.4885 14.7727 11.9989 14.7727V15.7727C12.2708 15.7727 12.452 15.851 12.5872 15.9799L13.2771 15.2559ZM11.9989 14.7727C11.6435 14.7727 11.3091 14.8688 11.0048 15.0552L11.5271 15.9079C11.6774 15.8158 11.8316 15.7727 11.9989 15.7727V14.7727ZM11.0024 15.0566C10.7012 15.2435 10.4623 15.5008 10.2849 15.8157L11.1562 16.3064C11.2572 16.1271 11.3819 15.998 11.5295 15.9064L11.0024 15.0566ZM10.2839 15.8174C10.1002 16.1466 10.016 16.5155 10.016 16.9091H11.016C11.016 16.6607 11.0681 16.4642 11.1571 16.3048L10.2839 15.8174ZM10.016 16.9091V21H11.016V16.9091H10.016ZM10.516 20.5H9.5103V21.5H10.516V20.5ZM21.0437 20.7145L20.7758 21.1367L20.777 21.1374L21.0437 20.7145ZM20.0039 19.5341L19.5547 19.7537L19.5557 19.7557L20.0039 19.5341ZM20.0039 15.9759L19.5552 15.7553L19.5542 15.7573L20.0039 15.9759ZM21.0437 14.7912L20.777 14.3683L20.7758 14.369L21.0437 14.7912ZM24.1502 14.7912L23.8823 15.2134L23.8835 15.2141L24.1502 14.7912ZM25.19 15.9759L24.7403 16.1944L24.7413 16.1964L25.19 15.9759ZM25.19 19.5341L24.7418 19.3125L24.7408 19.3145L25.19 19.5341ZM24.1502 20.7145L23.8835 20.2916L23.8823 20.2923L24.1502 20.7145ZM23.707 19.8878L23.3961 19.4962L23.3961 19.4962L23.707 19.8878ZM24.3505 18.9801L24.8192 19.1541L24.8192 19.1541L24.3505 18.9801ZM24.3505 16.5384L24.8197 16.3655L24.8197 16.3655L24.3505 16.5384ZM23.707 15.6222L24.0203 15.2325L24.0203 15.2325L23.707 15.6222ZM21.4911 15.6222L21.1778 15.2325L21.1778 15.2325L21.4911 15.6222ZM20.8477 16.5384L20.3785 16.3655L20.3785 16.3655L20.8477 16.5384ZM20.8477 18.9801L20.3789 19.1541L20.3789 19.1541L20.8477 18.9801ZM21.4911 19.8878L21.8021 19.4962L21.8021 19.4962L21.4911 19.8878ZM22.5991 20.6364C22.0908 20.6364 21.6672 20.5165 21.3104 20.2916L20.777 21.1374C21.3122 21.4749 21.9255 21.6364 22.5991 21.6364V20.6364ZM21.3116 20.2923C20.9515 20.0638 20.6647 19.7424 20.4521 19.3125L19.5557 19.7557C19.8431 20.3371 20.2495 20.8026 20.7758 21.1367L21.3116 20.2923ZM20.4531 19.3145C20.2454 18.8896 20.1332 18.3765 20.1332 17.7614H19.1332C19.1332 18.4985 19.2681 19.1672 19.5547 19.7537L20.4531 19.3145ZM20.1332 17.7614C20.1332 17.1399 20.2457 16.6222 20.4536 16.1944L19.5542 15.7573C19.2678 16.3465 19.1332 17.0192 19.1332 17.7614H20.1332ZM20.4526 16.1964C20.6654 15.7636 20.9522 15.4414 21.3116 15.2134L20.7758 14.369C20.2488 14.7035 19.8424 15.171 19.5552 15.7553L20.4526 16.1964ZM21.3104 15.2141C21.6672 14.9891 22.0908 14.8693 22.5991 14.8693V13.8693C21.9255 13.8693 21.3122 14.0308 20.777 14.3683L21.3104 15.2141ZM22.5991 14.8693C23.1074 14.8693 23.529 14.9892 23.8823 15.2134L24.4181 14.369C23.8851 14.0307 23.2726 13.8693 22.5991 13.8693V14.8693ZM23.8835 15.2141C24.2449 15.442 24.5308 15.7634 24.7403 16.1944L25.6397 15.7573C25.3548 15.1712 24.9475 14.7029 24.4169 14.3683L23.8835 15.2141ZM24.7413 16.1964C24.9514 16.6238 25.065 17.1407 25.065 17.7614H26.065C26.065 17.0184 25.9286 16.345 25.6387 15.7553L24.7413 16.1964ZM25.065 17.7614C25.065 18.3757 24.9516 18.8881 24.7418 19.3125L25.6382 19.7557C25.9284 19.1687 26.065 18.4993 26.065 17.7614H25.065ZM24.7408 19.3145C24.5315 19.7427 24.2457 20.0632 23.8835 20.2916L24.4169 21.1374C24.9468 20.8033 25.3541 20.3369 25.6392 19.7537L24.7408 19.3145ZM23.8823 20.2923C23.529 20.5165 23.1074 20.6364 22.5991 20.6364V21.6364C23.2726 21.6364 23.8851 21.4749 24.4181 21.1367L23.8823 20.2923ZM22.5991 20.733C23.136 20.733 23.6221 20.5937 24.018 20.2793L23.3961 19.4962C23.2124 19.6421 22.9599 19.733 22.5991 19.733V20.733ZM24.018 20.2793C24.385 19.9879 24.6509 19.6075 24.8192 19.1541L23.8818 18.8061C23.7716 19.1027 23.6086 19.3275 23.3961 19.4962L24.018 20.2793ZM24.8192 19.1541C24.981 18.7184 25.0593 18.2527 25.0593 17.7614H24.0593C24.0593 18.145 23.9984 18.4918 23.8818 18.8061L24.8192 19.1541ZM25.0593 17.7614C25.0593 17.27 24.981 16.8033 24.8197 16.3655L23.8813 16.7112C23.9984 17.0291 24.0593 17.3777 24.0593 17.7614H25.0593ZM24.8197 16.3655C24.6518 15.9099 24.3866 15.5269 24.0203 15.2325L23.3938 16.0118C23.607 16.1833 23.7708 16.4111 23.8813 16.7112L24.8197 16.3655ZM24.0203 15.2325C23.6244 14.9142 23.1374 14.7727 22.5991 14.7727V15.7727C22.9584 15.7727 23.2101 15.8642 23.3938 16.0118L24.0203 15.2325ZM22.5991 14.7727C22.0607 14.7727 21.5738 14.9142 21.1778 15.2325L21.8044 16.0118C21.988 15.8642 22.2397 15.7727 22.5991 15.7727V14.7727ZM21.1778 15.2325C20.8116 15.5269 20.5463 15.9099 20.3785 16.3655L21.3168 16.7112C21.4274 16.4111 21.5911 16.1833 21.8044 16.0118L21.1778 15.2325ZM20.3785 16.3655C20.2172 16.8033 20.1388 17.27 20.1388 17.7614H21.1388C21.1388 17.3777 21.1997 17.0291 21.3168 16.7112L20.3785 16.3655ZM20.1388 17.7614C20.1388 18.2527 20.2172 18.7184 20.3789 19.1541L21.3164 18.8061C21.1997 18.4918 21.1388 18.145 21.1388 17.7614H20.1388ZM20.3789 19.1541C20.5472 19.6075 20.8132 19.9879 21.1802 20.2793L21.8021 19.4962C21.5895 19.3275 21.4265 19.1027 21.3164 18.8061L20.3789 19.1541ZM21.1802 20.2793C21.576 20.5937 22.0621 20.733 22.5991 20.733V19.733C22.2383 19.733 21.9857 19.6421 21.8021 19.4962L21.1802 20.2793ZM28.174 20.7017L27.9004 21.1202L27.9004 21.1202L28.174 20.7017ZM27.1598 16.0014L26.7096 15.7838L26.7091 15.7849L27.1598 16.0014ZM28.1911 14.804L28.464 15.2229L28.4647 15.2225L28.1911 14.804ZM31.8942 15.3409L32.2906 15.0362L32.2906 15.0362L31.8942 15.3409ZM32.3331 16.4148V16.9148H32.9073L32.8283 16.346L32.3331 16.4148ZM31.3274 16.4148L30.8432 16.5393L30.9397 16.9148H31.3274V16.4148ZM30.8161 15.6222L30.4833 15.9954L30.4877 15.9992L30.8161 15.6222ZM28.728 15.5795L29.0118 15.9912L29.0126 15.9906L28.728 15.5795ZM28.0419 16.4361L27.5853 16.2324L27.5846 16.234L28.0419 16.4361ZM28.0376 19.0483L27.5773 19.2436L27.5786 19.2465L28.0376 19.0483ZM28.7195 19.9219L28.4303 20.3298L28.4322 20.3311L28.7195 19.9219ZM30.4709 20.0966L30.2747 19.6367L30.2747 19.6367L30.4709 20.0966ZM31.0121 19.7045L31.3899 20.032L31.3899 20.032L31.0121 19.7045ZM31.3274 19.0909V18.5909H30.9415L30.8437 18.9642L31.3274 19.0909ZM32.3331 19.0909L32.8278 19.1637L32.912 18.5909H32.3331V19.0909ZM31.9112 20.1349L31.5064 19.8415L31.5059 19.8422L31.9112 20.1349ZM31.0291 20.8679L31.2499 21.3165L31.2513 21.3158L31.0291 20.8679ZM29.7592 20.6364C29.227 20.6364 28.7972 20.5118 28.4476 20.2832L27.9004 21.1202C28.4372 21.4712 29.0642 21.6364 29.7592 21.6364V20.6364ZM28.4476 20.2832C28.0869 20.0473 27.8057 19.7217 27.6039 19.2919L26.6986 19.7167C26.9742 20.3038 27.3748 20.7765 27.9004 21.1202L28.4476 20.2832ZM27.6039 19.2919C27.4012 18.8598 27.2933 18.3533 27.2933 17.7614H26.2933C26.2933 18.4763 26.4241 19.1317 26.6986 19.7167L27.6039 19.2919ZM27.2933 17.7614C27.2933 17.1583 27.4039 16.6479 27.6105 16.2179L26.7091 15.7849C26.427 16.372 26.2933 17.0349 26.2933 17.7614H27.2933ZM27.61 16.219C27.8208 15.7828 28.1061 15.4561 28.464 15.2229L27.9181 14.3851C27.3953 14.7257 26.9931 15.1973 26.7096 15.7838L27.61 16.219ZM28.4647 15.2225C28.8173 14.9919 29.2368 14.8693 29.7422 14.8693V13.8693C29.0658 13.8693 28.4512 14.0365 27.9174 14.3855L28.4647 15.2225ZM29.7422 14.8693C30.1396 14.8693 30.4815 14.9426 30.777 15.079L31.196 14.171C30.7529 13.9665 30.2652 13.8693 29.7422 13.8693V14.8693ZM30.777 15.079C31.0767 15.2173 31.3138 15.4062 31.4977 15.6456L32.2906 15.0362C32.003 14.6619 31.6349 14.3736 31.196 14.171L30.777 15.079ZM31.4977 15.6456C31.6771 15.879 31.7921 16.1544 31.8379 16.4836L32.8283 16.346C32.7604 15.857 32.5828 15.4164 32.2906 15.0362L31.4977 15.6456ZM32.3331 15.9148H31.3274V16.9148H32.3331V15.9148ZM31.8117 16.2903C31.7064 15.8809 31.4741 15.5322 31.1444 15.2451L30.4877 15.9992C30.6864 16.1723 30.795 16.3521 30.8432 16.5393L31.8117 16.2903ZM31.1487 15.2489C30.7734 14.9144 30.2914 14.7727 29.7592 14.7727V15.7727C30.1134 15.7727 30.336 15.864 30.4834 15.9954L31.1487 15.2489ZM29.7592 14.7727C29.2752 14.7727 28.8301 14.9007 28.4434 15.1684L29.0126 15.9906C29.2168 15.8493 29.4592 15.7727 29.7592 15.7727V14.7727ZM28.4442 15.1679C28.066 15.4286 27.7822 15.791 27.5853 16.2324L28.4985 16.6398C28.6311 16.3425 28.8048 16.1339 29.0118 15.9912L28.4442 15.1679ZM27.5846 16.234C27.3887 16.6772 27.299 17.1792 27.299 17.7273H28.299C28.299 17.2867 28.3712 16.9279 28.4992 16.6382L27.5846 16.234ZM27.299 17.7273C27.299 18.2844 27.3866 18.7938 27.5774 19.2436L28.4979 18.853C28.3706 18.5528 28.299 18.1816 28.299 17.7273H27.299ZM27.5786 19.2465C27.7717 19.6937 28.053 20.0624 28.4303 20.3298L29.0086 19.5139C28.8007 19.3666 28.6274 19.1529 28.4967 18.8501L27.5786 19.2465ZM28.4322 20.3311C28.8203 20.6036 29.2697 20.733 29.7592 20.733V19.733C29.4534 19.733 29.2095 19.655 29.0067 19.5126L28.4322 20.3311ZM29.7592 20.733C30.0794 20.733 30.3845 20.677 30.6671 20.5565L30.2747 19.6367C30.1311 19.698 29.9618 19.733 29.7592 19.733V20.733ZM30.6671 20.5565C30.948 20.4366 31.1911 20.2614 31.3899 20.032L30.6342 19.3771C30.5376 19.4886 30.4199 19.5747 30.2747 19.6367L30.6671 20.5565ZM31.3899 20.032C31.5924 19.7984 31.731 19.5233 31.8111 19.2176L30.8437 18.9642C30.7988 19.1358 30.7272 19.2698 30.6342 19.3771L31.3899 20.032ZM31.3274 19.5909H32.3331V18.5909H31.3274V19.5909ZM31.8384 19.0182C31.7931 19.3266 31.6825 19.5985 31.5064 19.8415L32.3161 20.4284C32.5888 20.052 32.7595 19.628 32.8278 19.1637L31.8384 19.0182ZM31.5059 19.8422C31.3356 20.0779 31.1067 20.2713 30.8069 20.42L31.2513 21.3158C31.6845 21.1009 32.0436 20.8056 32.3166 20.4277L31.5059 19.8422ZM30.8083 20.4193C30.5253 20.5586 30.1802 20.6364 29.7592 20.6364V21.6364C30.3042 21.6364 30.8056 21.5352 31.2499 21.3165L30.8083 20.4193ZM34.7408 18.6136L34.2408 18.6205L34.2562 19.7442L35.0806 18.9804L34.7408 18.6136ZM34.7237 17.3693V16.8693H34.2168L34.2238 17.3762L34.7237 17.3693ZM34.9283 17.3693V17.8693H35.138L35.2849 17.7197L34.9283 17.3693ZM37.7919 14.4545V13.9545H37.5822L37.4352 14.1041L37.7919 14.4545ZM39.0362 14.4545L39.3917 14.8061L40.2339 13.9545H39.0362V14.4545ZM35.9851 17.5398V18.0398H36.1938L36.3406 17.8914L35.9851 17.5398ZM35.8999 17.5398V17.0398H35.7038L35.56 17.173L35.8999 17.5398ZM33.8033 21H33.3033V21.5H33.8033V21ZM33.8033 12.2727V11.7727H33.3033V12.2727H33.8033ZM34.8089 12.2727H35.3089V11.7727H34.8089V12.2727ZM34.8089 21V21.5H35.3089V21H34.8089ZM37.9624 21L37.5699 21.3098L37.7201 21.5H37.9624V21ZM35.4055 17.7614L35.0563 17.4036L34.7342 17.718L35.0131 18.0712L35.4055 17.7614ZM36.1214 17.0625L36.5134 16.752L36.169 16.3173L35.7722 16.7047L36.1214 17.0625ZM39.2408 21V21.5H40.2748L39.6327 20.6895L39.2408 21ZM35.2407 18.6068L35.2237 17.3625L34.2238 17.3762L34.2408 18.6205L35.2407 18.6068ZM34.7237 17.8693H34.9283V16.8693H34.7237V17.8693ZM35.2849 17.7197L38.1486 14.805L37.4352 14.1041L34.5716 17.0189L35.2849 17.7197ZM37.7919 14.9545H39.0362V13.9545H37.7919V14.9545ZM38.6807 14.103L35.6296 17.1882L36.3406 17.8914L39.3917 14.8061L38.6807 14.103ZM35.9851 17.0398H35.8999V18.0398H35.9851V17.0398ZM35.56 17.173L34.401 18.2469L35.0806 18.9804L36.2397 17.9066L35.56 17.173ZM34.3033 21V12.2727H33.3033V21H34.3033ZM33.8033 12.7727H34.8089V11.7727H33.8033V12.7727ZM34.3089 12.2727V21H35.3089V12.2727H34.3089ZM34.8089 20.5H33.8033V21.5H34.8089V20.5ZM38.3548 20.6902L35.798 17.4515L35.0131 18.0712L37.5699 21.3098L38.3548 20.6902ZM35.7548 18.1192L36.4707 17.4203L35.7722 16.7047L35.0563 17.4036L35.7548 18.1192ZM35.7295 17.373L38.8488 21.3105L39.6327 20.6895L36.5134 16.752L35.7295 17.373ZM39.2408 20.5H37.9624V21.5H39.2408V20.5Z" fill="black" mask="url(#path-2-outside-1_16_50)"/>
<mask id="path-4-outside-2_16_50" maskUnits="userSpaceOnUse" x="10" y="24" width="27" height="14" fill="black">
<rect fill="white" x="10" y="24" width="27" height="14"/>
<path d="M13.8864 37H12.4091L16.6818 25.3636H18.1364L22.4091 37H20.9318L17.4545 27.2045H17.3636L13.8864 37ZM14.4318 32.4545H20.3864V33.7045H14.4318V32.4545ZM24.2216 37V25.3636H28.1534C29.0663 25.3636 29.8125 25.5284 30.392 25.858C30.9754 26.1837 31.4072 26.625 31.6875 27.1818C31.9678 27.7386 32.108 28.3598 32.108 29.0455C32.108 29.7311 31.9678 30.3542 31.6875 30.9148C31.411 31.4754 30.983 31.9223 30.4034 32.2557C29.8239 32.5852 29.0814 32.75 28.1761 32.75H25.358V31.5H28.1307C28.7557 31.5 29.2576 31.392 29.6364 31.1761C30.0152 30.9602 30.2898 30.6686 30.4602 30.3011C30.6345 29.9299 30.7216 29.5114 30.7216 29.0455C30.7216 28.5795 30.6345 28.1629 30.4602 27.7955C30.2898 27.428 30.0133 27.1402 29.6307 26.9318C29.2481 26.7197 28.7405 26.6136 28.108 26.6136H25.6307V37H24.2216ZM35.7869 25.3636V37H34.3778V25.3636H35.7869Z"/>
</mask>
<path d="M13.8864 37H12.4091L16.6818 25.3636H18.1364L22.4091 37H20.9318L17.4545 27.2045H17.3636L13.8864 37ZM14.4318 32.4545H20.3864V33.7045H14.4318V32.4545ZM24.2216 37V25.3636H28.1534C29.0663 25.3636 29.8125 25.5284 30.392 25.858C30.9754 26.1837 31.4072 26.625 31.6875 27.1818C31.9678 27.7386 32.108 28.3598 32.108 29.0455C32.108 29.7311 31.9678 30.3542 31.6875 30.9148C31.411 31.4754 30.983 31.9223 30.4034 32.2557C29.8239 32.5852 29.0814 32.75 28.1761 32.75H25.358V31.5H28.1307C28.7557 31.5 29.2576 31.392 29.6364 31.1761C30.0152 30.9602 30.2898 30.6686 30.4602 30.3011C30.6345 29.9299 30.7216 29.5114 30.7216 29.0455C30.7216 28.5795 30.6345 28.1629 30.4602 27.7955C30.2898 27.428 30.0133 27.1402 29.6307 26.9318C29.2481 26.7197 28.7405 26.6136 28.108 26.6136H25.6307V37H24.2216ZM35.7869 25.3636V37H34.3778V25.3636H35.7869Z" fill="black"/>
<path d="M13.8864 37V38H14.5925L14.8287 37.3345L13.8864 37ZM12.4091 37L11.4704 36.6553L10.9766 38H12.4091V37ZM16.6818 25.3636V24.3636H15.9837L15.7431 25.019L16.6818 25.3636ZM18.1364 25.3636L19.0751 25.019L18.8345 24.3636H18.1364V25.3636ZM22.4091 37V38H23.8416L23.3478 36.6553L22.4091 37ZM20.9318 37L19.9894 37.3345L20.2257 38H20.9318V37ZM17.4545 27.2045L18.3969 26.87L18.1607 26.2045H17.4545V27.2045ZM17.3636 27.2045V26.2045H16.6575L16.4213 26.87L17.3636 27.2045ZM14.4318 32.4545V31.4545H13.4318V32.4545H14.4318ZM20.3864 32.4545H21.3864V31.4545H20.3864V32.4545ZM20.3864 33.7045V34.7045H21.3864V33.7045H20.3864ZM14.4318 33.7045H13.4318V34.7045H14.4318V33.7045ZM13.8864 36H12.4091V38H13.8864V36ZM13.3478 37.3447L17.6205 25.7083L15.7431 25.019L11.4704 36.6553L13.3478 37.3447ZM16.6818 26.3636H18.1364V24.3636H16.6818V26.3636ZM17.1976 25.7083L21.4704 37.3447L23.3478 36.6553L19.0751 25.019L17.1976 25.7083ZM22.4091 36H20.9318V38H22.4091V36ZM21.8742 36.6655L18.3969 26.87L16.5122 27.5391L19.9894 37.3345L21.8742 36.6655ZM17.4545 26.2045H17.3636V28.2045H17.4545V26.2045ZM16.4213 26.87L12.944 36.6655L14.8287 37.3345L18.306 27.5391L16.4213 26.87ZM14.4318 33.4545H20.3864V31.4545H14.4318V33.4545ZM19.3864 32.4545V33.7045H21.3864V32.4545H19.3864ZM20.3864 32.7045H14.4318V34.7045H20.3864V32.7045ZM15.4318 33.7045V32.4545H13.4318V33.7045H15.4318ZM24.2216 37H23.2216V38H24.2216V37ZM24.2216 25.3636V24.3636H23.2216V25.3636H24.2216ZM30.392 25.858L29.8977 26.7273L29.9045 26.731L30.392 25.858ZM31.6875 27.1818L30.7943 27.6315L30.7943 27.6315L31.6875 27.1818ZM31.6875 30.9148L30.7931 30.4676L30.7907 30.4724L31.6875 30.9148ZM30.4034 32.2557L30.8977 33.125L30.902 33.1225L30.4034 32.2557ZM25.358 32.75H24.358V33.75H25.358V32.75ZM25.358 31.5V30.5H24.358V31.5H25.358ZM29.6364 31.1761L29.1412 30.3074L29.1412 30.3074L29.6364 31.1761ZM30.4602 30.3011L29.555 29.8762L29.5531 29.8803L30.4602 30.3011ZM30.4602 27.7955L29.5531 28.2163L29.5567 28.2239L30.4602 27.7955ZM29.6307 26.9318L29.1458 27.8064L29.1524 27.81L29.6307 26.9318ZM25.6307 26.6136V25.6136H24.6307V26.6136H25.6307ZM25.6307 37V38H26.6307V37H25.6307ZM25.2216 37V25.3636H23.2216V37H25.2216ZM24.2216 26.3636H28.1534V24.3636H24.2216V26.3636ZM28.1534 26.3636C28.9542 26.3636 29.5144 26.5093 29.8977 26.7272L30.8863 24.9887C30.1106 24.5476 29.1784 24.3636 28.1534 24.3636V26.3636ZM29.9045 26.731C30.3265 26.9667 30.6104 27.2662 30.7943 27.6315L32.5807 26.7322C32.204 25.9838 31.6243 25.4007 30.8796 24.9849L29.9045 26.731ZM30.7943 27.6315C30.9976 28.0353 31.108 28.5002 31.108 29.0455H33.108C33.108 28.2195 32.938 27.442 32.5807 26.7322L30.7943 27.6315ZM31.108 29.0455C31.108 29.5906 30.9976 30.0585 30.7931 30.4676L32.5819 31.362C32.938 30.6498 33.108 29.8715 33.108 29.0455H31.108ZM30.7907 30.4724C30.6081 30.8426 30.325 31.1472 29.9048 31.3888L30.902 33.1225C31.6409 32.6975 32.2139 32.1082 32.5843 31.3571L30.7907 30.4724ZM29.9091 31.3864C29.5247 31.605 28.9676 31.75 28.1761 31.75V33.75C29.1952 33.75 30.1231 33.5655 30.8977 33.125L29.9091 31.3864ZM28.1761 31.75H25.358V33.75H28.1761V31.75ZM26.358 32.75V31.5H24.358V32.75H26.358ZM25.358 32.5H28.1307V30.5H25.358V32.5ZM28.1307 32.5C28.8585 32.5 29.5504 32.3762 30.1316 32.0449L29.1412 30.3074C28.9647 30.4079 28.6528 30.5 28.1307 30.5V32.5ZM30.1316 32.0449C30.6763 31.7344 31.1027 31.2925 31.3674 30.722L29.5531 29.8803C29.4769 30.0446 29.354 30.186 29.1412 30.3074L30.1316 32.0449ZM31.3655 30.726C31.6101 30.2049 31.7216 29.6382 31.7216 29.0455H29.7216C29.7216 29.3845 29.6588 29.655 29.555 29.8762L31.3655 30.726ZM31.7216 29.0455C31.7216 28.4529 31.6102 27.8865 31.3638 27.367L29.5567 28.2239C29.6588 28.4392 29.7216 28.7062 29.7216 29.0455H31.7216ZM31.3674 27.3746C31.0997 26.7977 30.6647 26.3563 30.1089 26.0536L29.1524 27.81C29.3618 27.9241 29.4798 28.0584 29.5531 28.2163L31.3674 27.3746ZM30.1156 26.0573C29.5331 25.7343 28.8394 25.6136 28.108 25.6136V27.6136C28.6417 27.6136 28.9632 27.7051 29.1458 27.8064L30.1156 26.0573ZM28.108 25.6136H25.6307V27.6136H28.108V25.6136ZM24.6307 26.6136V37H26.6307V26.6136H24.6307ZM25.6307 36H24.2216V38H25.6307V36ZM35.7869 25.3636H36.7869V24.3636H35.7869V25.3636ZM35.7869 37V38H36.7869V37H35.7869ZM34.3778 37H33.3778V38H34.3778V37ZM34.3778 25.3636V24.3636H33.3778V25.3636H34.3778ZM34.7869 25.3636V37H36.7869V25.3636H34.7869ZM35.7869 36H34.3778V38H35.7869V36ZM35.3778 37V25.3636H33.3778V37H35.3778ZM34.3778 26.3636H35.7869V24.3636H34.3778V26.3636Z" fill="black" mask="url(#path-4-outside-2_16_50)"/>
</svg>
