<svg width="50" height="50" viewBox="0 0 50 50" fill="none" xmlns="http://www.w3.org/2000/svg">
<g clip-path="url(#clip0_99_6)">
<path fill-rule="evenodd" clip-rule="evenodd" d="M36.1552 12.8135C35.4948 12.8344 34.8781 13.0896 34.4094 13.5583L21.251 26.7167L18.4396 23.9063C31.3854 10.9823 33.749 10.8542 36.1552 12.8135ZM21.7833 27.1844L34.899 14.1542C35.6229 13.4521 36.7729 13.4521 37.4969 14.1542C37.8583 14.5167 38.05 15.0063 38.0292 15.4958C38.0073 16.0073 37.7948 16.475 37.4115 16.8156L23.55 29.0375L21.7833 27.1844ZM22.7625 29.1646L19.5042 29.9948C19.4406 30.0375 19.3771 30.0375 19.3125 29.9948C19.2708 29.9313 19.2708 29.8458 19.3125 29.7823L21.2927 27.8021L22.7625 29.1646ZM14.4583 27.8021L17.9292 24.3313L20.5479 27.0146L14.6073 28.2917C14.4792 28.3135 14.3521 28.2281 14.3302 28.1C14.3094 28.0146 14.3302 27.951 14.3948 27.8875L14.4583 27.8021ZM3.70521 45.8354C3.62083 45.8146 3.53542 45.751 3.51354 45.6865C3.49271 45.601 3.49271 45.5167 3.51354 45.4521L6.30313 42.6417L9.92292 46.2406L3.70521 45.8354ZM10.8594 42.1094C10.5833 42.2583 10.4344 42.5573 10.4979 42.8552L11.0937 45.4104C11.1365 45.5802 11.051 45.751 10.924 45.8354C10.7958 45.9427 10.6042 45.9427 10.4979 45.8354L6.87813 42.1094L17.9927 30.975L23.3802 29.825L25.9562 32.401C21.3573 36.2333 16.2896 39.4906 10.8813 42.0677V42.1094H10.8594ZM31.724 26.7927C30.099 28.4969 28.301 30.2438 26.4885 31.975L24.0188 29.5052L37.8802 17.3052C38.0073 17.199 38.1354 17.0719 38.2417 16.9219C37.9365 19.6292 35.2333 23.1115 31.724 26.7927ZM37.3052 12.8771C35.2396 10.7271 35.325 7.31979 37.475 5.25521C39.4344 3.38125 42.4583 3.25312 44.5656 4.95625L39.7958 9.70521C39.6688 9.85417 39.6688 10.0667 39.7958 10.2156L43.501 13.899C41.4146 14.9208 38.9021 14.4948 37.2833 12.8344L37.3052 12.8771ZM44.9063 12.8771C44.651 13.1115 44.3958 13.3458 44.0969 13.5375L40.5417 9.98125L45.0771 5.44688C47.0354 7.55417 46.9719 10.8333 44.9063 12.8771ZM5.58854 37.1771C4.61458 37.7865 3.07812 37.0958 2.16042 35.6354C1.32292 34.3021 0 29.6979 0 25C0 18.375 2.63542 12.0104 7.32292 7.32292C12.0104 2.63542 18.375 0 25 0C28.1875 0 31.3438 0.604167 31.3927 0.623958C32.9927 1.26875 33.9458 2.65729 33.5208 3.72396C33.0958 4.79063 31.6438 5.2125 30.2813 4.66667C30.2813 4.66667 27.6563 4.16667 25 4.16667C19.4792 4.16667 14.1771 6.36458 10.2708 10.2708C6.36458 14.1771 4.16667 19.4792 4.16667 25C4.16667 28.9167 5.27083 32.75 5.69375 33.425C6.61042 34.8865 6.5625 36.5677 5.58854 37.1771ZM46.7031 17.6406C47.7927 17.2698 49.0687 18.1313 49.5521 19.5625C49.5521 19.5625 50 22.2708 50 25C50 31.625 47.3646 37.9896 42.6771 42.6771C37.9896 47.3646 31.625 50 25 50C21.4062 50 17.8542 49.2292 16.4865 48.6C15.4417 48.1198 14.9813 46.8823 15.4583 45.8385C15.9354 44.7948 17.1719 44.3354 18.2187 44.8125C19.0417 45.1875 22.0104 45.8333 25 45.8333C30.5208 45.8333 35.8229 43.6354 39.7292 39.7292C43.6354 35.8229 45.8333 30.5208 45.8333 25C45.8333 22.7292 45.4688 20.4688 45.4688 20.4688C45.0604 19.2792 45.6135 18.0115 46.7031 17.6406Z" fill="url(#paint0_linear_99_6)"/>
</g>
<defs>
<linearGradient id="paint0_linear_99_6" x1="0" y1="25" x2="50" y2="25" gradientUnits="userSpaceOnUse">
<stop stop-color="#333333"/>
<stop offset="0.986957" stop-color="#333333"/>
</linearGradient>
<clipPath id="clip0_99_6">
<rect width="50" height="50" fill="white"/>
</clipPath>
</defs>
</svg>
